%TF.GenerationSoftware,KiCad,Pcbnew,10.0.3*%
%TF.CreationDate,2026-07-15T13:55:11+05:30*%
%TF.ProjectId,compass,636f6d70-6173-4732-9e6b-696361645f70,rev?*%
%TF.SameCoordinates,Original*%
%TF.FileFunction,Soldermask,Top*%
%TF.FilePolarity,Negative*%
%FSLAX46Y46*%
G04 Gerber Fmt 4.6, Leading zero omitted, Abs format (unit mm)*
G04 Created by KiCad (PCBNEW 10.0.3) date 2026-07-15 13:55:11*
%MOMM*%
%LPD*%
G01*
G04 APERTURE LIST*
G04 Aperture macros list*
%AMRoundRect*
0 Rectangle with rounded corners*
0 $1 Rounding radius*
0 $2 $3 $4 $5 $6 $7 $8 $9 X,Y pos of 4 corners*
0 Add a 4 corners polygon primitive as box body*
4,1,4,$2,$3,$4,$5,$6,$7,$8,$9,$2,$3,0*
0 Add four circle primitives for the rounded corners*
1,1,$1+$1,$2,$3*
1,1,$1+$1,$4,$5*
1,1,$1+$1,$6,$7*
1,1,$1+$1,$8,$9*
0 Add four rect primitives between the rounded corners*
20,1,$1+$1,$2,$3,$4,$5,0*
20,1,$1+$1,$4,$5,$6,$7,0*
20,1,$1+$1,$6,$7,$8,$9,0*
20,1,$1+$1,$8,$9,$2,$3,0*%
G04 Aperture macros list end*
%ADD10RoundRect,0.140000X-0.140000X-0.170000X0.140000X-0.170000X0.140000X0.170000X-0.140000X0.170000X0*%
%ADD11R,1.500000X1.500000*%
%ADD12RoundRect,0.100000X-0.130000X-0.100000X0.130000X-0.100000X0.130000X0.100000X-0.130000X0.100000X0*%
%ADD13R,0.500000X0.800000*%
%ADD14R,0.500000X0.500000*%
%ADD15RoundRect,0.135000X-0.135000X-0.185000X0.135000X-0.185000X0.135000X0.185000X-0.135000X0.185000X0*%
%ADD16RoundRect,0.150000X-0.512500X-0.150000X0.512500X-0.150000X0.512500X0.150000X-0.512500X0.150000X0*%
%ADD17RoundRect,0.147500X-0.147500X-0.172500X0.147500X-0.172500X0.147500X0.172500X-0.147500X0.172500X0*%
%ADD18RoundRect,0.250000X-0.275000X-0.250000X0.275000X-0.250000X0.275000X0.250000X-0.275000X0.250000X0*%
%ADD19RoundRect,0.250000X-0.850000X-0.275000X0.850000X-0.275000X0.850000X0.275000X-0.850000X0.275000X0*%
%ADD20RoundRect,0.150000X-0.150000X-0.400000X0.150000X-0.400000X0.150000X0.400000X-0.150000X0.400000X0*%
%ADD21R,0.375000X0.350000*%
%ADD22R,0.350000X0.375000*%
%ADD23RoundRect,0.170000X0.680000X-0.680000X0.680000X0.680000X-0.680000X0.680000X-0.680000X-0.680000X0*%
%ADD24C,1.700000*%
%ADD25RoundRect,0.062500X-0.375000X-0.062500X0.375000X-0.062500X0.375000X0.062500X-0.375000X0.062500X0*%
%ADD26RoundRect,0.062500X-0.062500X-0.375000X0.062500X-0.375000X0.062500X0.375000X-0.062500X0.375000X0*%
%ADD27R,5.600000X5.600000*%
%ADD28C,0.990600*%
%ADD29C,0.787400*%
%ADD30RoundRect,0.200000X-0.250000X-0.200000X0.250000X-0.200000X0.250000X0.200000X-0.250000X0.200000X0*%
%ADD31C,0.650000*%
%ADD32RoundRect,0.150000X-0.150000X-0.425000X0.150000X-0.425000X0.150000X0.425000X-0.150000X0.425000X0*%
%ADD33RoundRect,0.075000X-0.075000X-0.500000X0.075000X-0.500000X0.075000X0.500000X-0.075000X0.500000X0*%
%ADD34O,1.000000X2.100000*%
%ADD35O,1.000000X1.800000*%
%ADD36RoundRect,0.200000X-0.200000X-0.450000X0.200000X-0.450000X0.200000X0.450000X-0.200000X0.450000X0*%
%ADD37O,0.800000X1.300000*%
G04 APERTURE END LIST*
%TO.C,J1*%
G36*
X82010000Y-60560000D02*
G01*
X84100000Y-60560000D01*
X84100000Y-62440000D01*
X82010000Y-62440000D01*
X82010000Y-60560000D01*
G37*
%TD*%
D10*
%TO.C,C5*%
X124722500Y-67010000D03*
X125682500Y-67010000D03*
%TD*%
D11*
%TO.C,SW1*%
X87100000Y-61500000D03*
X94900000Y-61500000D03*
%TD*%
D10*
%TO.C,C16*%
X127592500Y-70950000D03*
X128552500Y-70950000D03*
%TD*%
D12*
%TO.C,C17*%
X121442500Y-68550000D03*
X122082500Y-68550000D03*
%TD*%
%TO.C,C18*%
X127622500Y-65050000D03*
X128262500Y-65050000D03*
%TD*%
D13*
%TO.C,USB1*%
X83000000Y-68000000D03*
D14*
X83750000Y-68360000D03*
D13*
X84480000Y-68000000D03*
D14*
X83750000Y-67640000D03*
%TD*%
D15*
%TO.C,R8*%
X127662500Y-61050000D03*
X128682500Y-61050000D03*
%TD*%
%TO.C,R7*%
X122302500Y-56687500D03*
X123322500Y-56687500D03*
%TD*%
%TO.C,R5*%
X90480000Y-74000000D03*
X91500000Y-74000000D03*
%TD*%
%TO.C,C13*%
X109762500Y-75550000D03*
X110782500Y-75550000D03*
%TD*%
D10*
%TO.C,C19*%
X127592500Y-72920000D03*
X128552500Y-72920000D03*
%TD*%
D16*
%TO.C,U2*%
X86862500Y-56050000D03*
X86862500Y-57000000D03*
X86862500Y-57950000D03*
X89137500Y-57950000D03*
X89137500Y-57000000D03*
X89137500Y-56050000D03*
%TD*%
D17*
%TO.C,L2*%
X114777500Y-68550000D03*
X115747500Y-68550000D03*
%TD*%
%TO.C,D1*%
X117777500Y-70050000D03*
X118747500Y-70050000D03*
%TD*%
D12*
%TO.C,C7*%
X126262500Y-59050000D03*
X126902500Y-59050000D03*
%TD*%
D15*
%TO.C,R1*%
X115252500Y-72050000D03*
X116272500Y-72050000D03*
%TD*%
D10*
%TO.C,C2*%
X112782500Y-75550000D03*
X113742500Y-75550000D03*
%TD*%
%TO.C,C3*%
X115282500Y-75550000D03*
X116242500Y-75550000D03*
%TD*%
D17*
%TO.C,L1*%
X114762500Y-66550000D03*
X115732500Y-66550000D03*
%TD*%
D10*
%TO.C,C4*%
X100332500Y-68187500D03*
X101292500Y-68187500D03*
%TD*%
D18*
%TO.C,J1*%
X81475000Y-61500000D03*
D19*
X83000000Y-60025000D03*
X83000000Y-62975000D03*
%TD*%
D15*
%TO.C,R3*%
X124752500Y-61050000D03*
X125772500Y-61050000D03*
%TD*%
%TO.C,R2*%
X100302500Y-65687500D03*
X101322500Y-65687500D03*
%TD*%
D12*
%TO.C,C11*%
X118442500Y-67050000D03*
X119082500Y-67050000D03*
%TD*%
D20*
%TO.C,X1*%
X99812500Y-62687500D03*
X101212500Y-62687500D03*
%TD*%
D10*
%TO.C,C1*%
X114782500Y-64550000D03*
X115742500Y-64550000D03*
%TD*%
D15*
%TO.C,R9*%
X127662500Y-63040000D03*
X128682500Y-63040000D03*
%TD*%
D17*
%TO.C,L3*%
X103777500Y-74050000D03*
X104747500Y-74050000D03*
%TD*%
D10*
%TO.C,C15*%
X127592500Y-68980000D03*
X128552500Y-68980000D03*
%TD*%
%TO.C,C8*%
X124722500Y-70950000D03*
X125682500Y-70950000D03*
%TD*%
D21*
%TO.C,U4*%
X98312500Y-73187500D03*
X98312500Y-73687500D03*
X98312500Y-74187500D03*
X98312500Y-74687500D03*
D22*
X98825000Y-74700000D03*
X99325000Y-74700000D03*
D21*
X99837500Y-74687500D03*
X99837500Y-74187500D03*
X99837500Y-73687500D03*
X99837500Y-73187500D03*
D22*
X99325000Y-73175000D03*
X98825000Y-73175000D03*
%TD*%
D23*
%TO.C,U5*%
X95500000Y-53310000D03*
D24*
X95500000Y-50770000D03*
X95500000Y-48230000D03*
X95500000Y-45690000D03*
%TD*%
D25*
%TO.C,U1*%
X105125000Y-64500000D03*
X105125000Y-65000000D03*
X105125000Y-65500000D03*
X105125000Y-66000000D03*
X105125000Y-66500000D03*
X105125000Y-67000000D03*
X105125000Y-67500000D03*
X105125000Y-68000000D03*
X105125000Y-68500000D03*
X105125000Y-69000000D03*
X105125000Y-69500000D03*
X105125000Y-70000000D03*
D26*
X105812500Y-70687500D03*
X106312500Y-70687500D03*
X106812500Y-70687500D03*
X107312500Y-70687500D03*
X107812500Y-70687500D03*
X108312500Y-70687500D03*
X108812500Y-70687500D03*
X109312500Y-70687500D03*
X109812500Y-70687500D03*
X110312500Y-70687500D03*
X110812500Y-70687500D03*
X111312500Y-70687500D03*
D25*
X112000000Y-70000000D03*
X112000000Y-69500000D03*
X112000000Y-69000000D03*
X112000000Y-68500000D03*
X112000000Y-68000000D03*
X112000000Y-67500000D03*
X112000000Y-67000000D03*
X112000000Y-66500000D03*
X112000000Y-66000000D03*
X112000000Y-65500000D03*
X112000000Y-65000000D03*
X112000000Y-64500000D03*
D26*
X111312500Y-63812500D03*
X110812500Y-63812500D03*
X110312500Y-63812500D03*
X109812500Y-63812500D03*
X109312500Y-63812500D03*
X108812500Y-63812500D03*
X108312500Y-63812500D03*
X107812500Y-63812500D03*
X107312500Y-63812500D03*
X106812500Y-63812500D03*
X106312500Y-63812500D03*
X105812500Y-63812500D03*
D27*
X108562500Y-67250000D03*
%TD*%
D28*
%TO.C,J2*%
X119352500Y-59322500D03*
X114272500Y-60338500D03*
X114272500Y-58306500D03*
D29*
X118082500Y-58687500D03*
X118082500Y-59957500D03*
X116812500Y-58687500D03*
X116812500Y-59957500D03*
X115542500Y-58687500D03*
X115542500Y-59957500D03*
%TD*%
D10*
%TO.C,C12*%
X127592500Y-67010000D03*
X128552500Y-67010000D03*
%TD*%
D15*
%TO.C,R4*%
X124752500Y-63040000D03*
X125772500Y-63040000D03*
%TD*%
D10*
%TO.C,C6*%
X124722500Y-68980000D03*
X125682500Y-68980000D03*
%TD*%
D16*
%TO.C,U3*%
X118625000Y-63100000D03*
X118625000Y-64050000D03*
X118625000Y-65000000D03*
X120900000Y-65000000D03*
X120900000Y-63100000D03*
%TD*%
D10*
%TO.C,C9*%
X124722500Y-72920000D03*
X125682500Y-72920000D03*
%TD*%
D30*
%TO.C,Y1*%
X117562500Y-74100000D03*
X118962500Y-74100000D03*
X118962500Y-73000000D03*
X117562500Y-73000000D03*
%TD*%
D15*
%TO.C,R6*%
X93500000Y-74000000D03*
X94520000Y-74000000D03*
%TD*%
D31*
%TO.C,J3*%
X84110000Y-47395000D03*
X89890000Y-47395000D03*
D32*
X83800000Y-46320000D03*
X84600000Y-46320000D03*
D33*
X85750000Y-46320000D03*
X86750000Y-46320000D03*
X87250000Y-46320000D03*
X88250000Y-46320000D03*
D32*
X89400000Y-46320000D03*
X90200000Y-46320000D03*
X90200000Y-46320000D03*
X89400000Y-46320000D03*
D33*
X88750000Y-46320000D03*
X87750000Y-46320000D03*
X86250000Y-46320000D03*
X85250000Y-46320000D03*
D32*
X84600000Y-46320000D03*
X83800000Y-46320000D03*
D34*
X82680000Y-46895000D03*
D35*
X82680000Y-51075000D03*
D34*
X91320000Y-46895000D03*
D35*
X91320000Y-51075000D03*
%TD*%
D12*
%TO.C,C10*%
X125762500Y-56550000D03*
X126402500Y-56550000D03*
%TD*%
D15*
%TO.C,C14*%
X106752500Y-75550000D03*
X107772500Y-75550000D03*
%TD*%
D36*
%TO.C,J4*%
X87625000Y-66300000D03*
D37*
X88875000Y-66300000D03*
X90125000Y-66300000D03*
X91375000Y-66300000D03*
%TD*%
M02*
