%TF.GenerationSoftware,KiCad,Pcbnew,10.0.3*%
%TF.CreationDate,2026-07-15T13:55:11+05:30*%
%TF.ProjectId,compass,636f6d70-6173-4732-9e6b-696361645f70,rev?*%
%TF.SameCoordinates,Original*%
%TF.FileFunction,Copper,L2,Bot*%
%TF.FilePolarity,Positive*%
%FSLAX46Y46*%
G04 Gerber Fmt 4.6, Leading zero omitted, Abs format (unit mm)*
G04 Created by KiCad (PCBNEW 10.0.3) date 2026-07-15 13:55:11*
%MOMM*%
%LPD*%
G01*
G04 APERTURE LIST*
G04 Aperture macros list*
%AMRoundRect*
0 Rectangle with rounded corners*
0 $1 Rounding radius*
0 $2 $3 $4 $5 $6 $7 $8 $9 X,Y pos of 4 corners*
0 Add a 4 corners polygon primitive as box body*
4,1,4,$2,$3,$4,$5,$6,$7,$8,$9,$2,$3,0*
0 Add four circle primitives for the rounded corners*
1,1,$1+$1,$2,$3*
1,1,$1+$1,$4,$5*
1,1,$1+$1,$6,$7*
1,1,$1+$1,$8,$9*
0 Add four rect primitives between the rounded corners*
20,1,$1+$1,$2,$3,$4,$5,0*
20,1,$1+$1,$4,$5,$6,$7,0*
20,1,$1+$1,$6,$7,$8,$9,0*
20,1,$1+$1,$8,$9,$2,$3,0*%
G04 Aperture macros list end*
%TA.AperFunction,ComponentPad*%
%ADD10RoundRect,0.170000X0.680000X-0.680000X0.680000X0.680000X-0.680000X0.680000X-0.680000X-0.680000X0*%
%TD*%
%TA.AperFunction,ComponentPad*%
%ADD11C,1.700000*%
%TD*%
%TA.AperFunction,ComponentPad*%
%ADD12O,1.000000X2.100000*%
%TD*%
%TA.AperFunction,ComponentPad*%
%ADD13O,1.000000X1.800000*%
%TD*%
%TA.AperFunction,ComponentPad*%
%ADD14RoundRect,0.200000X-0.200000X-0.450000X0.200000X-0.450000X0.200000X0.450000X-0.200000X0.450000X0*%
%TD*%
%TA.AperFunction,ComponentPad*%
%ADD15O,0.800000X1.300000*%
%TD*%
%TA.AperFunction,ViaPad*%
%ADD16C,0.600000*%
%TD*%
%TA.AperFunction,ViaPad*%
%ADD17C,0.500000*%
%TD*%
%TA.AperFunction,ViaPad*%
%ADD18C,0.250000*%
%TD*%
%TA.AperFunction,Conductor*%
%ADD19C,0.200000*%
%TD*%
%TA.AperFunction,Conductor*%
%ADD20C,0.300000*%
%TD*%
%TA.AperFunction,Conductor*%
%ADD21C,0.250000*%
%TD*%
%TA.AperFunction,Conductor*%
%ADD22C,0.220000*%
%TD*%
%TA.AperFunction,Conductor*%
%ADD23C,0.190000*%
%TD*%
G04 APERTURE END LIST*
D10*
%TO.P,U5,1,GND_1*%
%TO.N,GND*%
X95500000Y-53310000D03*
D11*
%TO.P,U5,2,VCC_2*%
%TO.N,+3V3*%
X95500000Y-50770000D03*
%TO.P,U5,3,SCL_3*%
%TO.N,Net-(U1-PB8)*%
X95500000Y-48230000D03*
%TO.P,U5,4,SDA_4*%
%TO.N,Net-(U1-PB9)*%
X95500000Y-45690000D03*
%TD*%
D12*
%TO.P,J3,SH,SHIELD_SH*%
%TO.N,GND*%
X82680000Y-46895000D03*
D13*
X82680000Y-51075000D03*
D12*
X91320000Y-46895000D03*
D13*
X91320000Y-51075000D03*
%TD*%
D14*
%TO.P,J4,1,Pin_1_1*%
%TO.N,+3V3*%
X87625000Y-66300000D03*
D15*
%TO.P,J4,2,Pin_2_2*%
%TO.N,/UART_TXC*%
X88875000Y-66300000D03*
%TO.P,J4,3,Pin_3_3*%
%TO.N,/UART_RXC*%
X90125000Y-66300000D03*
%TO.P,J4,4,Pin_4_4*%
%TO.N,GND*%
X91375000Y-66300000D03*
%TD*%
D16*
%TO.N,*%
X94500000Y-71500000D03*
D17*
%TO.N,GND*%
X119100000Y-64099999D03*
X125600000Y-63000000D03*
X114900000Y-64599999D03*
X119900000Y-71700000D03*
X122800000Y-65099999D03*
X128400000Y-67600000D03*
X121500000Y-58700000D03*
X88900000Y-67600000D03*
X126600000Y-71000000D03*
X89000000Y-44600000D03*
X128400000Y-72300000D03*
X90300000Y-45900000D03*
X120400000Y-57600000D03*
D18*
X99325000Y-74700000D03*
D17*
X125600000Y-61200000D03*
X115000000Y-73400000D03*
X114400000Y-74700000D03*
X124800000Y-71000000D03*
X110900000Y-66300000D03*
D18*
X99800000Y-74200000D03*
D17*
X126800000Y-69100000D03*
D16*
X108562500Y-67150000D03*
D17*
X119900000Y-70300000D03*
X98500000Y-70050000D03*
X119100000Y-65900000D03*
X101900000Y-76300000D03*
%TO.N,+3V3*%
X98000000Y-65599999D03*
X99800000Y-63800000D03*
D16*
X100525002Y-73050000D03*
D17*
X116700000Y-63600000D03*
D16*
X108340380Y-62840380D03*
X104000000Y-68500000D03*
D17*
X117800000Y-59000000D03*
X122800000Y-62800000D03*
D16*
X107448849Y-72124265D03*
X102114645Y-70233885D03*
D17*
X104900000Y-62500000D03*
X93500000Y-50800000D03*
D16*
X100516369Y-67378405D03*
D17*
X119900000Y-62800000D03*
D16*
X112516057Y-63892429D03*
%TO.N,Net-(U1-PC14)*%
X104621595Y-63834978D03*
X124009620Y-72490380D03*
X101440380Y-64250000D03*
X103686765Y-64313235D03*
D17*
%TO.N,/SMPSFB*%
X118100000Y-68000000D03*
X112900000Y-67000000D03*
X116700000Y-69200000D03*
D18*
X112000000Y-67000000D03*
D16*
%TO.N,Net-(U1-PC15)*%
X126500000Y-66500000D03*
D17*
%TO.N,Net-(U1-RF1)*%
X109800000Y-71600000D03*
D18*
X109812000Y-70688000D03*
%TO.N,/SWD_NRST*%
X105000000Y-67500000D03*
D17*
X119700000Y-58300000D03*
X121000000Y-59300000D03*
X121000000Y-65800000D03*
%TO.N,Net-(U1-PH3)*%
X101400000Y-67300000D03*
X115400000Y-71900000D03*
D16*
X101450000Y-65735980D03*
X102998481Y-65688398D03*
D17*
X118000000Y-71000000D03*
%TO.N,Net-(U2-VBUS)*%
X118300000Y-62800000D03*
X97400000Y-54700000D03*
X108600000Y-59900000D03*
X97400000Y-56700000D03*
D16*
%TO.N,Net-(D1-A)*%
X108500000Y-72000000D03*
X119000000Y-70350000D03*
D18*
%TO.N,/SWD_DIO*%
X110312000Y-63812000D03*
D17*
X111300000Y-62800000D03*
%TO.N,/SWD_CLK*%
X110975735Y-62124265D03*
D18*
X109312000Y-63812000D03*
D17*
%TO.N,Net-(J2-SWO)*%
X110300000Y-61800000D03*
D18*
X108312000Y-63812000D03*
%TO.N,Net-(J3-CC2)*%
X88750000Y-46320000D03*
D17*
X88800000Y-47400000D03*
D16*
%TO.N,Net-(J3-CC1)*%
X85240833Y-44050000D03*
X85666001Y-47283551D03*
X127000000Y-60500000D03*
X123500000Y-59000000D03*
X129350000Y-64500000D03*
X123000000Y-58500000D03*
D18*
%TO.N,Net-(J3-D--PadA7)*%
X87250000Y-46320000D03*
X86250000Y-46320000D03*
D17*
X87200000Y-47400000D03*
%TO.N,/<NO NET>*%
X112900000Y-66000000D03*
D18*
X112000000Y-66000000D03*
D16*
%TO.N,/UART_TX*%
X103750000Y-63515736D03*
X96500000Y-67000000D03*
X103121078Y-63650000D03*
X90500000Y-72500000D03*
%TO.N,Net-(U1-PB9)*%
X97627480Y-73962748D03*
X127000000Y-61500000D03*
X101500000Y-71000000D03*
X103522235Y-67100000D03*
X104340613Y-67050000D03*
D17*
%TO.N,Net-(U1-PB8)*%
X98500000Y-71000000D03*
X97700000Y-73100000D03*
X102545270Y-66285980D03*
X96500000Y-58700000D03*
X129400000Y-62300000D03*
X100500000Y-54700000D03*
X96500000Y-54700000D03*
D18*
X104950000Y-66500000D03*
D17*
X128000000Y-62300000D03*
D18*
%TO.N,/USB_D+*%
X110800000Y-64000000D03*
D17*
X106300000Y-62800000D03*
%TO.N,/USB_D-*%
X110400000Y-60700000D03*
X112400000Y-62700000D03*
%TD*%
%TO.N,*%
D19*
X90500000Y-74000000D02*
X93000000Y-71500000D01*
X93000000Y-71500000D02*
X94500000Y-71500000D01*
%TO.N,GND*%
D20*
X98791949Y-70341949D02*
X99800000Y-71350000D01*
X114400000Y-74700000D02*
X115000000Y-74100000D01*
X115000000Y-74100000D02*
X115000000Y-73400000D01*
X91000000Y-66900000D02*
X90300000Y-67600000D01*
X91300000Y-46900000D02*
X91300000Y-51100000D01*
X99800000Y-71350000D02*
X99800000Y-74200000D01*
X89000000Y-44600000D02*
X90300000Y-45900000D01*
X91300000Y-51100000D02*
X92700000Y-51100000D01*
X97951472Y-70341949D02*
X98791949Y-70341949D01*
X123600000Y-63200000D02*
X123600000Y-60800000D01*
X126600000Y-71000000D02*
X126800000Y-70800000D01*
X92700000Y-51100000D02*
X94900000Y-53300000D01*
X119900000Y-71700000D02*
X119900000Y-70300000D01*
X114900000Y-64599999D02*
X112500000Y-64599999D01*
X110900000Y-66200000D02*
X110900000Y-66300000D01*
X125600000Y-63000000D02*
X125600000Y-61200000D01*
X127900000Y-72300000D02*
X128400000Y-72300000D01*
X94900000Y-53300000D02*
X95500000Y-53300000D01*
X98500000Y-70050000D02*
X98243421Y-70050000D01*
X122800000Y-64200000D02*
X122800000Y-65099999D01*
X91320000Y-46895000D02*
X91300000Y-46900000D01*
X123600000Y-63000000D02*
X125600000Y-63000000D01*
X126800000Y-69100000D02*
X126900000Y-69100000D01*
X119100000Y-64629000D02*
X119100000Y-64599999D01*
X91375000Y-66300000D02*
X91400000Y-66300000D01*
X119100000Y-65900000D02*
X119100000Y-64099999D01*
X122700000Y-64099999D02*
X123600000Y-63200000D01*
X90300000Y-67600000D02*
X88900000Y-67600000D01*
X123600000Y-60800000D02*
X120400000Y-57600000D01*
X91300000Y-51100000D02*
X91320000Y-51075000D01*
X124800000Y-71000000D02*
X126600000Y-71000000D01*
X119100000Y-64099999D02*
X122700000Y-64099999D01*
X126600000Y-71000000D02*
X127900000Y-72300000D01*
X126900000Y-69100000D02*
X128400000Y-67600000D01*
X121538000Y-58738000D02*
X121500000Y-58700000D01*
X122700000Y-64099999D02*
X122800000Y-64200000D01*
X91000000Y-66700000D02*
X91000000Y-66900000D01*
X91400000Y-66300000D02*
X91000000Y-66700000D01*
X126800000Y-70800000D02*
X126800000Y-69100000D01*
X119100000Y-64599999D02*
X114900000Y-64599999D01*
X99800000Y-74200000D02*
X99300000Y-74700000D01*
X99300000Y-74700000D02*
X99325000Y-74700000D01*
X99800000Y-74200000D02*
X101900000Y-76300000D01*
X112500000Y-64599999D02*
X110900000Y-66200000D01*
X98243421Y-70050000D02*
X97951472Y-70341949D01*
%TO.N,+3V3*%
D21*
X105725000Y-62561827D02*
X106061827Y-62225000D01*
D19*
X100850000Y-67072182D02*
X101172182Y-66750000D01*
X101172182Y-66750000D02*
X102250000Y-66750000D01*
D20*
X95500000Y-50800000D02*
X95500000Y-50770000D01*
D21*
X111433486Y-64975000D02*
X107661827Y-64975000D01*
X107725000Y-62225000D02*
X108340380Y-62840380D01*
D20*
X119100000Y-62800000D02*
X119900000Y-62800000D01*
D19*
X107448849Y-71551151D02*
X107448849Y-72124265D01*
X108500000Y-70500000D02*
X107448849Y-71551151D01*
D21*
X107661827Y-64975000D02*
X105725000Y-63038173D01*
D19*
X102100000Y-69936396D02*
X100500000Y-68336396D01*
X102100000Y-71475002D02*
X102100000Y-70000000D01*
X102100000Y-70219240D02*
X102114645Y-70233885D01*
X102100000Y-70000000D02*
X102100000Y-69936396D01*
D20*
X119900000Y-62800000D02*
X122800000Y-62800000D01*
X98000000Y-65599999D02*
X99800000Y-63800000D01*
X118600000Y-63600000D02*
X116700000Y-63600000D01*
D19*
X104000000Y-68500000D02*
X106000000Y-70500000D01*
X102100000Y-70000000D02*
X102100000Y-70219240D01*
D20*
X108300000Y-59100000D02*
X108900000Y-59100000D01*
D19*
X100525002Y-73050000D02*
X102100000Y-71475002D01*
X100500000Y-67394774D02*
X100516369Y-67378405D01*
D20*
X119100000Y-63100000D02*
X118600000Y-63600000D01*
D19*
X100500000Y-68336396D02*
X100500000Y-67394774D01*
D20*
X116700000Y-60100000D02*
X117800000Y-59000000D01*
D19*
X102100000Y-69936396D02*
X100850000Y-68686396D01*
D21*
X105725000Y-63038173D02*
X105725000Y-62561827D01*
D20*
X116682000Y-60082000D02*
X116700000Y-60100000D01*
D21*
X112516057Y-63892429D02*
X111433486Y-64975000D01*
D20*
X109100000Y-59300000D02*
X115900000Y-59300000D01*
D19*
X102250000Y-66750000D02*
X104000000Y-68500000D01*
D20*
X119100000Y-62500000D02*
X119100000Y-63100000D01*
D21*
X106061827Y-62225000D02*
X107725000Y-62225000D01*
D20*
X104900000Y-62500000D02*
X108300000Y-59100000D01*
D19*
X100850000Y-68686396D02*
X100850000Y-67072182D01*
D20*
X108900000Y-59100000D02*
X109100000Y-59300000D01*
X115900000Y-59300000D02*
X119100000Y-62500000D01*
D19*
X106000000Y-70500000D02*
X108500000Y-70500000D01*
D20*
X93500000Y-50800000D02*
X95500000Y-50800000D01*
%TO.N,Net-(U1-PC14)*%
D19*
X124009620Y-71012562D02*
X124009620Y-72490380D01*
X124927818Y-57050000D02*
X129950000Y-62072182D01*
X104350000Y-62272182D02*
X109572182Y-57050000D01*
X129950000Y-62072182D02*
X129950000Y-65072182D01*
X104621595Y-63834978D02*
X104350000Y-63563383D01*
X101440380Y-64250000D02*
X103623530Y-64250000D01*
X129950000Y-65072182D02*
X124009620Y-71012562D01*
X104350000Y-63563383D02*
X104350000Y-62272182D01*
X109572182Y-57050000D02*
X124927818Y-57050000D01*
X103623530Y-64250000D02*
X103686765Y-64313235D01*
%TO.N,/SMPSFB*%
D20*
X116700000Y-69200000D02*
X116900000Y-69200000D01*
X112900000Y-67000000D02*
X112000000Y-67000000D01*
X116900000Y-69200000D02*
X118100000Y-68000000D01*
%TO.N,Net-(U1-PC15)*%
D19*
X99666203Y-76850000D02*
X96750000Y-73933797D01*
X96750000Y-73933797D02*
X96750000Y-69587451D01*
X96750000Y-69587451D02*
X101337451Y-65000000D01*
X116150000Y-76850000D02*
X99666203Y-76850000D01*
X126500000Y-66500000D02*
X116150000Y-76850000D01*
X101337451Y-65000000D02*
X105000000Y-65000000D01*
%TO.N,Net-(U1-RF1)*%
D20*
X109800000Y-71600000D02*
X109800000Y-70700000D01*
%TO.N,/SWD_NRST*%
X121000000Y-59300000D02*
X120700000Y-59300000D01*
X113800000Y-67200000D02*
X113200000Y-67800000D01*
X121000000Y-65800000D02*
X120300000Y-65800000D01*
X105100000Y-67800000D02*
X104900000Y-67600000D01*
X120300000Y-65800000D02*
X118900000Y-67200000D01*
X104900000Y-67600000D02*
X105000000Y-67500000D01*
X113200000Y-67800000D02*
X105100000Y-67800000D01*
X118900000Y-67200000D02*
X113800000Y-67200000D01*
X120700000Y-59300000D02*
X119700000Y-58300000D01*
%TO.N,Net-(U1-PH3)*%
D19*
X102998481Y-65688398D02*
X103364870Y-65688398D01*
X103500000Y-65823528D02*
X103500000Y-66000000D01*
X103364870Y-65688398D02*
X103500000Y-65823528D01*
D20*
X112200000Y-71900000D02*
X110900000Y-73200000D01*
X117100000Y-71900000D02*
X118000000Y-71000000D01*
X115400000Y-71900000D02*
X112200000Y-71900000D01*
X101400000Y-68600000D02*
X101400000Y-67300000D01*
X115400000Y-71900000D02*
X117100000Y-71900000D01*
X106000000Y-73200000D02*
X101400000Y-68600000D01*
D19*
X103235980Y-65735980D02*
X101450000Y-65735980D01*
D20*
X110900000Y-73200000D02*
X106000000Y-73200000D01*
D19*
X103500000Y-66000000D02*
X103235980Y-65735980D01*
%TO.N,Net-(U2-VBUS)*%
D20*
X110700000Y-59900000D02*
X108600000Y-59900000D01*
X118300000Y-62800000D02*
X116800000Y-61300000D01*
X116800000Y-61300000D02*
X112100000Y-61300000D01*
X97400000Y-56700000D02*
X97400000Y-54700000D01*
X112100000Y-61300000D02*
X110700000Y-59900000D01*
%TO.N,Net-(D1-A)*%
D19*
X108500000Y-72000000D02*
X109000000Y-72000000D01*
X109150000Y-72150000D02*
X111313604Y-72150000D01*
X109000000Y-72000000D02*
X109150000Y-72150000D01*
X111313604Y-72150000D02*
X113113604Y-70350000D01*
X113113604Y-70350000D02*
X119000000Y-70350000D01*
%TO.N,/SWD_DIO*%
D20*
X110700000Y-63500000D02*
X111300000Y-62900000D01*
X110300000Y-63800000D02*
X110600000Y-63500000D01*
%TO.N,/SWD_CLK*%
X110550000Y-62650000D02*
X109700000Y-63500000D01*
X109700000Y-63500000D02*
X109600000Y-63500000D01*
X110975735Y-62124265D02*
X110550000Y-62550000D01*
X110550000Y-62550000D02*
X110550000Y-62650000D01*
X109600000Y-63500000D02*
X109300000Y-63800000D01*
%TO.N,Net-(J2-SWO)*%
X108300000Y-63800000D02*
X110300000Y-61800000D01*
%TO.N,Net-(J3-CC2)*%
X88800000Y-46300000D02*
X88800000Y-47400000D01*
%TO.N,Net-(J3-CC1)*%
D19*
X85500000Y-44309167D02*
X85500000Y-47117550D01*
X127450000Y-62600000D02*
X129350000Y-64500000D01*
X127000000Y-60500000D02*
X128000000Y-61500000D01*
X85500000Y-47117550D02*
X85666001Y-47283551D01*
X127450000Y-62050000D02*
X127450000Y-62600000D01*
X85240833Y-44050000D02*
X85500000Y-44309167D01*
X128000000Y-61500000D02*
X127450000Y-62050000D01*
%TO.N,Net-(J3-D--PadA7)*%
D20*
X87200000Y-46300000D02*
X86200000Y-46300000D01*
X87200000Y-46300000D02*
X87200000Y-47400000D01*
%TO.N,/<NO NET>*%
X112900000Y-66000000D02*
X112000000Y-66000000D01*
%TO.N,/UART_TX*%
D19*
X96500000Y-67000000D02*
X97377818Y-67000000D01*
X90500000Y-72500000D02*
X92100000Y-70900000D01*
X100727818Y-63650000D02*
X103121078Y-63650000D01*
X93941851Y-70900000D02*
X101326115Y-63515736D01*
X97377818Y-67000000D02*
X100727818Y-63650000D01*
X101326115Y-63515736D02*
X103750000Y-63515736D01*
X92100000Y-70900000D02*
X93941851Y-70900000D01*
%TO.N,Net-(U1-PB9)*%
X127100000Y-66748529D02*
X116598529Y-77250000D01*
X100550000Y-70050000D02*
X100550000Y-69550000D01*
X97150000Y-73327818D02*
X97822182Y-74000000D01*
X97150000Y-69753136D02*
X97150000Y-73327818D01*
X116598529Y-77250000D02*
X93184314Y-77250000D01*
X127000000Y-61500000D02*
X127000000Y-62377818D01*
X119627818Y-69750000D02*
X106413604Y-69750000D01*
X126748529Y-65900000D02*
X127100000Y-66251471D01*
X106413604Y-69750000D02*
X104340613Y-67677009D01*
X127000000Y-62377818D02*
X119627818Y-69750000D01*
X104340613Y-67677009D02*
X104340613Y-67050000D01*
X97664732Y-74000000D02*
X97627480Y-73962748D01*
X101050000Y-61101471D02*
X101050000Y-51240000D01*
X97403136Y-69500000D02*
X97150000Y-69753136D01*
X103522235Y-67100000D02*
X106172235Y-69750000D01*
X101500000Y-71000000D02*
X100550000Y-70050000D01*
X122401471Y-69750000D02*
X126251471Y-65900000D01*
X127100000Y-66251471D02*
X127100000Y-66748529D01*
X126251471Y-65900000D02*
X126748529Y-65900000D01*
X93184314Y-77250000D02*
X89900000Y-73965686D01*
X100550000Y-69550000D02*
X100500000Y-69500000D01*
X101050000Y-51240000D02*
X95500000Y-45690000D01*
X89900000Y-72251471D02*
X101050000Y-61101471D01*
X97822182Y-74000000D02*
X97664732Y-74000000D01*
X106172235Y-69750000D02*
X122401471Y-69750000D01*
X100500000Y-69500000D02*
X97403136Y-69500000D01*
X89900000Y-73965686D02*
X89900000Y-72251471D01*
%TO.N,Net-(U1-PB8)*%
D20*
X102561766Y-66302476D02*
X102569711Y-66302476D01*
X97700000Y-71700000D02*
X97700000Y-73100000D01*
X97700000Y-57500000D02*
X100500000Y-54700000D01*
X103263604Y-66400000D02*
X103313604Y-66450000D01*
X102569711Y-66302476D02*
X102667235Y-66400000D01*
X98500000Y-71000000D02*
X98400000Y-71000000D01*
X129400000Y-62300000D02*
X128000000Y-62300000D01*
X103686396Y-66450000D02*
X103736396Y-66400000D01*
X96500000Y-57500000D02*
X97700000Y-57500000D01*
D19*
X105000000Y-66500000D02*
X105125000Y-66500000D01*
D20*
X98400000Y-71000000D02*
X97700000Y-71700000D01*
X102667235Y-66400000D02*
X103263604Y-66400000D01*
D22*
X104900000Y-66400000D02*
X105000000Y-66500000D01*
D20*
X102545270Y-66285980D02*
X102561766Y-66302476D01*
X103313604Y-66450000D02*
X103686396Y-66450000D01*
X96500000Y-58700000D02*
X96500000Y-54700000D01*
D19*
X105125000Y-66500000D02*
X105062000Y-66500000D01*
D20*
X103736396Y-66400000D02*
X104900000Y-66400000D01*
%TO.N,/USB_D+*%
X110600000Y-64500000D02*
X108000000Y-64500000D01*
X110900000Y-64200000D02*
X110600000Y-64500000D01*
X108000000Y-64500000D02*
X106300000Y-62800000D01*
D23*
X110800000Y-64000000D02*
X110900000Y-64099999D01*
D20*
X110900000Y-64099999D02*
X110900000Y-64200000D01*
%TO.N,/USB_D-*%
X112400000Y-62700000D02*
X110400000Y-60700000D01*
%TD*%
M02*
