%TF.GenerationSoftware,KiCad,Pcbnew,10.0.3*%
%TF.CreationDate,2026-07-15T13:55:11+05:30*%
%TF.ProjectId,compass,636f6d70-6173-4732-9e6b-696361645f70,rev?*%
%TF.SameCoordinates,Original*%
%TF.FileFunction,Legend,Top*%
%TF.FilePolarity,Positive*%
%FSLAX46Y46*%
G04 Gerber Fmt 4.6, Leading zero omitted, Abs format (unit mm)*
G04 Created by KiCad (PCBNEW 10.0.3) date 2026-07-15 13:55:11*
%MOMM*%
%LPD*%
G01*
G04 APERTURE LIST*
%ADD10C,0.150000*%
%ADD11C,0.120000*%
%ADD12C,0.250000*%
%ADD13C,0.060000*%
%ADD14C,0.100000*%
%ADD15C,0.200000*%
G04 APERTURE END LIST*
D10*
X125035833Y-66209580D02*
X124988214Y-66257200D01*
X124988214Y-66257200D02*
X124845357Y-66304819D01*
X124845357Y-66304819D02*
X124750119Y-66304819D01*
X124750119Y-66304819D02*
X124607262Y-66257200D01*
X124607262Y-66257200D02*
X124512024Y-66161961D01*
X124512024Y-66161961D02*
X124464405Y-66066723D01*
X124464405Y-66066723D02*
X124416786Y-65876247D01*
X124416786Y-65876247D02*
X124416786Y-65733390D01*
X124416786Y-65733390D02*
X124464405Y-65542914D01*
X124464405Y-65542914D02*
X124512024Y-65447676D01*
X124512024Y-65447676D02*
X124607262Y-65352438D01*
X124607262Y-65352438D02*
X124750119Y-65304819D01*
X124750119Y-65304819D02*
X124845357Y-65304819D01*
X124845357Y-65304819D02*
X124988214Y-65352438D01*
X124988214Y-65352438D02*
X125035833Y-65400057D01*
X125940595Y-65304819D02*
X125464405Y-65304819D01*
X125464405Y-65304819D02*
X125416786Y-65781009D01*
X125416786Y-65781009D02*
X125464405Y-65733390D01*
X125464405Y-65733390D02*
X125559643Y-65685771D01*
X125559643Y-65685771D02*
X125797738Y-65685771D01*
X125797738Y-65685771D02*
X125892976Y-65733390D01*
X125892976Y-65733390D02*
X125940595Y-65781009D01*
X125940595Y-65781009D02*
X125988214Y-65876247D01*
X125988214Y-65876247D02*
X125988214Y-66114342D01*
X125988214Y-66114342D02*
X125940595Y-66209580D01*
X125940595Y-66209580D02*
X125892976Y-66257200D01*
X125892976Y-66257200D02*
X125797738Y-66304819D01*
X125797738Y-66304819D02*
X125559643Y-66304819D01*
X125559643Y-66304819D02*
X125464405Y-66257200D01*
X125464405Y-66257200D02*
X125416786Y-66209580D01*
X89666667Y-59307200D02*
X89809524Y-59354819D01*
X89809524Y-59354819D02*
X90047619Y-59354819D01*
X90047619Y-59354819D02*
X90142857Y-59307200D01*
X90142857Y-59307200D02*
X90190476Y-59259580D01*
X90190476Y-59259580D02*
X90238095Y-59164342D01*
X90238095Y-59164342D02*
X90238095Y-59069104D01*
X90238095Y-59069104D02*
X90190476Y-58973866D01*
X90190476Y-58973866D02*
X90142857Y-58926247D01*
X90142857Y-58926247D02*
X90047619Y-58878628D01*
X90047619Y-58878628D02*
X89857143Y-58831009D01*
X89857143Y-58831009D02*
X89761905Y-58783390D01*
X89761905Y-58783390D02*
X89714286Y-58735771D01*
X89714286Y-58735771D02*
X89666667Y-58640533D01*
X89666667Y-58640533D02*
X89666667Y-58545295D01*
X89666667Y-58545295D02*
X89714286Y-58450057D01*
X89714286Y-58450057D02*
X89761905Y-58402438D01*
X89761905Y-58402438D02*
X89857143Y-58354819D01*
X89857143Y-58354819D02*
X90095238Y-58354819D01*
X90095238Y-58354819D02*
X90238095Y-58402438D01*
X90571429Y-58354819D02*
X90809524Y-59354819D01*
X90809524Y-59354819D02*
X91000000Y-58640533D01*
X91000000Y-58640533D02*
X91190476Y-59354819D01*
X91190476Y-59354819D02*
X91428572Y-58354819D01*
X92333333Y-59354819D02*
X91761905Y-59354819D01*
X92047619Y-59354819D02*
X92047619Y-58354819D01*
X92047619Y-58354819D02*
X91952381Y-58497676D01*
X91952381Y-58497676D02*
X91857143Y-58592914D01*
X91857143Y-58592914D02*
X91761905Y-58640533D01*
X127429642Y-70149580D02*
X127382023Y-70197200D01*
X127382023Y-70197200D02*
X127239166Y-70244819D01*
X127239166Y-70244819D02*
X127143928Y-70244819D01*
X127143928Y-70244819D02*
X127001071Y-70197200D01*
X127001071Y-70197200D02*
X126905833Y-70101961D01*
X126905833Y-70101961D02*
X126858214Y-70006723D01*
X126858214Y-70006723D02*
X126810595Y-69816247D01*
X126810595Y-69816247D02*
X126810595Y-69673390D01*
X126810595Y-69673390D02*
X126858214Y-69482914D01*
X126858214Y-69482914D02*
X126905833Y-69387676D01*
X126905833Y-69387676D02*
X127001071Y-69292438D01*
X127001071Y-69292438D02*
X127143928Y-69244819D01*
X127143928Y-69244819D02*
X127239166Y-69244819D01*
X127239166Y-69244819D02*
X127382023Y-69292438D01*
X127382023Y-69292438D02*
X127429642Y-69340057D01*
X128382023Y-70244819D02*
X127810595Y-70244819D01*
X128096309Y-70244819D02*
X128096309Y-69244819D01*
X128096309Y-69244819D02*
X128001071Y-69387676D01*
X128001071Y-69387676D02*
X127905833Y-69482914D01*
X127905833Y-69482914D02*
X127810595Y-69530533D01*
X129239166Y-69244819D02*
X129048690Y-69244819D01*
X129048690Y-69244819D02*
X128953452Y-69292438D01*
X128953452Y-69292438D02*
X128905833Y-69340057D01*
X128905833Y-69340057D02*
X128810595Y-69482914D01*
X128810595Y-69482914D02*
X128762976Y-69673390D01*
X128762976Y-69673390D02*
X128762976Y-70054342D01*
X128762976Y-70054342D02*
X128810595Y-70149580D01*
X128810595Y-70149580D02*
X128858214Y-70197200D01*
X128858214Y-70197200D02*
X128953452Y-70244819D01*
X128953452Y-70244819D02*
X129143928Y-70244819D01*
X129143928Y-70244819D02*
X129239166Y-70197200D01*
X129239166Y-70197200D02*
X129286785Y-70149580D01*
X129286785Y-70149580D02*
X129334404Y-70054342D01*
X129334404Y-70054342D02*
X129334404Y-69816247D01*
X129334404Y-69816247D02*
X129286785Y-69721009D01*
X129286785Y-69721009D02*
X129239166Y-69673390D01*
X129239166Y-69673390D02*
X129143928Y-69625771D01*
X129143928Y-69625771D02*
X128953452Y-69625771D01*
X128953452Y-69625771D02*
X128858214Y-69673390D01*
X128858214Y-69673390D02*
X128810595Y-69721009D01*
X128810595Y-69721009D02*
X128762976Y-69816247D01*
X121119642Y-67859580D02*
X121072023Y-67907200D01*
X121072023Y-67907200D02*
X120929166Y-67954819D01*
X120929166Y-67954819D02*
X120833928Y-67954819D01*
X120833928Y-67954819D02*
X120691071Y-67907200D01*
X120691071Y-67907200D02*
X120595833Y-67811961D01*
X120595833Y-67811961D02*
X120548214Y-67716723D01*
X120548214Y-67716723D02*
X120500595Y-67526247D01*
X120500595Y-67526247D02*
X120500595Y-67383390D01*
X120500595Y-67383390D02*
X120548214Y-67192914D01*
X120548214Y-67192914D02*
X120595833Y-67097676D01*
X120595833Y-67097676D02*
X120691071Y-67002438D01*
X120691071Y-67002438D02*
X120833928Y-66954819D01*
X120833928Y-66954819D02*
X120929166Y-66954819D01*
X120929166Y-66954819D02*
X121072023Y-67002438D01*
X121072023Y-67002438D02*
X121119642Y-67050057D01*
X122072023Y-67954819D02*
X121500595Y-67954819D01*
X121786309Y-67954819D02*
X121786309Y-66954819D01*
X121786309Y-66954819D02*
X121691071Y-67097676D01*
X121691071Y-67097676D02*
X121595833Y-67192914D01*
X121595833Y-67192914D02*
X121500595Y-67240533D01*
X122405357Y-66954819D02*
X123072023Y-66954819D01*
X123072023Y-66954819D02*
X122643452Y-67954819D01*
X127299642Y-64359580D02*
X127252023Y-64407200D01*
X127252023Y-64407200D02*
X127109166Y-64454819D01*
X127109166Y-64454819D02*
X127013928Y-64454819D01*
X127013928Y-64454819D02*
X126871071Y-64407200D01*
X126871071Y-64407200D02*
X126775833Y-64311961D01*
X126775833Y-64311961D02*
X126728214Y-64216723D01*
X126728214Y-64216723D02*
X126680595Y-64026247D01*
X126680595Y-64026247D02*
X126680595Y-63883390D01*
X126680595Y-63883390D02*
X126728214Y-63692914D01*
X126728214Y-63692914D02*
X126775833Y-63597676D01*
X126775833Y-63597676D02*
X126871071Y-63502438D01*
X126871071Y-63502438D02*
X127013928Y-63454819D01*
X127013928Y-63454819D02*
X127109166Y-63454819D01*
X127109166Y-63454819D02*
X127252023Y-63502438D01*
X127252023Y-63502438D02*
X127299642Y-63550057D01*
X128252023Y-64454819D02*
X127680595Y-64454819D01*
X127966309Y-64454819D02*
X127966309Y-63454819D01*
X127966309Y-63454819D02*
X127871071Y-63597676D01*
X127871071Y-63597676D02*
X127775833Y-63692914D01*
X127775833Y-63692914D02*
X127680595Y-63740533D01*
X128823452Y-63883390D02*
X128728214Y-63835771D01*
X128728214Y-63835771D02*
X128680595Y-63788152D01*
X128680595Y-63788152D02*
X128632976Y-63692914D01*
X128632976Y-63692914D02*
X128632976Y-63645295D01*
X128632976Y-63645295D02*
X128680595Y-63550057D01*
X128680595Y-63550057D02*
X128728214Y-63502438D01*
X128728214Y-63502438D02*
X128823452Y-63454819D01*
X128823452Y-63454819D02*
X129013928Y-63454819D01*
X129013928Y-63454819D02*
X129109166Y-63502438D01*
X129109166Y-63502438D02*
X129156785Y-63550057D01*
X129156785Y-63550057D02*
X129204404Y-63645295D01*
X129204404Y-63645295D02*
X129204404Y-63692914D01*
X129204404Y-63692914D02*
X129156785Y-63788152D01*
X129156785Y-63788152D02*
X129109166Y-63835771D01*
X129109166Y-63835771D02*
X129013928Y-63883390D01*
X129013928Y-63883390D02*
X128823452Y-63883390D01*
X128823452Y-63883390D02*
X128728214Y-63931009D01*
X128728214Y-63931009D02*
X128680595Y-63978628D01*
X128680595Y-63978628D02*
X128632976Y-64073866D01*
X128632976Y-64073866D02*
X128632976Y-64264342D01*
X128632976Y-64264342D02*
X128680595Y-64359580D01*
X128680595Y-64359580D02*
X128728214Y-64407200D01*
X128728214Y-64407200D02*
X128823452Y-64454819D01*
X128823452Y-64454819D02*
X129013928Y-64454819D01*
X129013928Y-64454819D02*
X129109166Y-64407200D01*
X129109166Y-64407200D02*
X129156785Y-64359580D01*
X129156785Y-64359580D02*
X129204404Y-64264342D01*
X129204404Y-64264342D02*
X129204404Y-64073866D01*
X129204404Y-64073866D02*
X129156785Y-63978628D01*
X129156785Y-63978628D02*
X129109166Y-63931009D01*
X129109166Y-63931009D02*
X129013928Y-63883390D01*
X82001905Y-63094819D02*
X82001905Y-63904342D01*
X82001905Y-63904342D02*
X82049524Y-63999580D01*
X82049524Y-63999580D02*
X82097143Y-64047200D01*
X82097143Y-64047200D02*
X82192381Y-64094819D01*
X82192381Y-64094819D02*
X82382857Y-64094819D01*
X82382857Y-64094819D02*
X82478095Y-64047200D01*
X82478095Y-64047200D02*
X82525714Y-63999580D01*
X82525714Y-63999580D02*
X82573333Y-63904342D01*
X82573333Y-63904342D02*
X82573333Y-63094819D01*
X83001905Y-64047200D02*
X83144762Y-64094819D01*
X83144762Y-64094819D02*
X83382857Y-64094819D01*
X83382857Y-64094819D02*
X83478095Y-64047200D01*
X83478095Y-64047200D02*
X83525714Y-63999580D01*
X83525714Y-63999580D02*
X83573333Y-63904342D01*
X83573333Y-63904342D02*
X83573333Y-63809104D01*
X83573333Y-63809104D02*
X83525714Y-63713866D01*
X83525714Y-63713866D02*
X83478095Y-63666247D01*
X83478095Y-63666247D02*
X83382857Y-63618628D01*
X83382857Y-63618628D02*
X83192381Y-63571009D01*
X83192381Y-63571009D02*
X83097143Y-63523390D01*
X83097143Y-63523390D02*
X83049524Y-63475771D01*
X83049524Y-63475771D02*
X83001905Y-63380533D01*
X83001905Y-63380533D02*
X83001905Y-63285295D01*
X83001905Y-63285295D02*
X83049524Y-63190057D01*
X83049524Y-63190057D02*
X83097143Y-63142438D01*
X83097143Y-63142438D02*
X83192381Y-63094819D01*
X83192381Y-63094819D02*
X83430476Y-63094819D01*
X83430476Y-63094819D02*
X83573333Y-63142438D01*
X84335238Y-63571009D02*
X84478095Y-63618628D01*
X84478095Y-63618628D02*
X84525714Y-63666247D01*
X84525714Y-63666247D02*
X84573333Y-63761485D01*
X84573333Y-63761485D02*
X84573333Y-63904342D01*
X84573333Y-63904342D02*
X84525714Y-63999580D01*
X84525714Y-63999580D02*
X84478095Y-64047200D01*
X84478095Y-64047200D02*
X84382857Y-64094819D01*
X84382857Y-64094819D02*
X84001905Y-64094819D01*
X84001905Y-64094819D02*
X84001905Y-63094819D01*
X84001905Y-63094819D02*
X84335238Y-63094819D01*
X84335238Y-63094819D02*
X84430476Y-63142438D01*
X84430476Y-63142438D02*
X84478095Y-63190057D01*
X84478095Y-63190057D02*
X84525714Y-63285295D01*
X84525714Y-63285295D02*
X84525714Y-63380533D01*
X84525714Y-63380533D02*
X84478095Y-63475771D01*
X84478095Y-63475771D02*
X84430476Y-63523390D01*
X84430476Y-63523390D02*
X84335238Y-63571009D01*
X84335238Y-63571009D02*
X84001905Y-63571009D01*
X85525714Y-64094819D02*
X84954286Y-64094819D01*
X85240000Y-64094819D02*
X85240000Y-63094819D01*
X85240000Y-63094819D02*
X85144762Y-63237676D01*
X85144762Y-63237676D02*
X85049524Y-63332914D01*
X85049524Y-63332914D02*
X84954286Y-63380533D01*
X128005833Y-60334819D02*
X127672500Y-59858628D01*
X127434405Y-60334819D02*
X127434405Y-59334819D01*
X127434405Y-59334819D02*
X127815357Y-59334819D01*
X127815357Y-59334819D02*
X127910595Y-59382438D01*
X127910595Y-59382438D02*
X127958214Y-59430057D01*
X127958214Y-59430057D02*
X128005833Y-59525295D01*
X128005833Y-59525295D02*
X128005833Y-59668152D01*
X128005833Y-59668152D02*
X127958214Y-59763390D01*
X127958214Y-59763390D02*
X127910595Y-59811009D01*
X127910595Y-59811009D02*
X127815357Y-59858628D01*
X127815357Y-59858628D02*
X127434405Y-59858628D01*
X128577262Y-59763390D02*
X128482024Y-59715771D01*
X128482024Y-59715771D02*
X128434405Y-59668152D01*
X128434405Y-59668152D02*
X128386786Y-59572914D01*
X128386786Y-59572914D02*
X128386786Y-59525295D01*
X128386786Y-59525295D02*
X128434405Y-59430057D01*
X128434405Y-59430057D02*
X128482024Y-59382438D01*
X128482024Y-59382438D02*
X128577262Y-59334819D01*
X128577262Y-59334819D02*
X128767738Y-59334819D01*
X128767738Y-59334819D02*
X128862976Y-59382438D01*
X128862976Y-59382438D02*
X128910595Y-59430057D01*
X128910595Y-59430057D02*
X128958214Y-59525295D01*
X128958214Y-59525295D02*
X128958214Y-59572914D01*
X128958214Y-59572914D02*
X128910595Y-59668152D01*
X128910595Y-59668152D02*
X128862976Y-59715771D01*
X128862976Y-59715771D02*
X128767738Y-59763390D01*
X128767738Y-59763390D02*
X128577262Y-59763390D01*
X128577262Y-59763390D02*
X128482024Y-59811009D01*
X128482024Y-59811009D02*
X128434405Y-59858628D01*
X128434405Y-59858628D02*
X128386786Y-59953866D01*
X128386786Y-59953866D02*
X128386786Y-60144342D01*
X128386786Y-60144342D02*
X128434405Y-60239580D01*
X128434405Y-60239580D02*
X128482024Y-60287200D01*
X128482024Y-60287200D02*
X128577262Y-60334819D01*
X128577262Y-60334819D02*
X128767738Y-60334819D01*
X128767738Y-60334819D02*
X128862976Y-60287200D01*
X128862976Y-60287200D02*
X128910595Y-60239580D01*
X128910595Y-60239580D02*
X128958214Y-60144342D01*
X128958214Y-60144342D02*
X128958214Y-59953866D01*
X128958214Y-59953866D02*
X128910595Y-59858628D01*
X128910595Y-59858628D02*
X128862976Y-59811009D01*
X128862976Y-59811009D02*
X128767738Y-59763390D01*
X122645833Y-55972319D02*
X122312500Y-55496128D01*
X122074405Y-55972319D02*
X122074405Y-54972319D01*
X122074405Y-54972319D02*
X122455357Y-54972319D01*
X122455357Y-54972319D02*
X122550595Y-55019938D01*
X122550595Y-55019938D02*
X122598214Y-55067557D01*
X122598214Y-55067557D02*
X122645833Y-55162795D01*
X122645833Y-55162795D02*
X122645833Y-55305652D01*
X122645833Y-55305652D02*
X122598214Y-55400890D01*
X122598214Y-55400890D02*
X122550595Y-55448509D01*
X122550595Y-55448509D02*
X122455357Y-55496128D01*
X122455357Y-55496128D02*
X122074405Y-55496128D01*
X122979167Y-54972319D02*
X123645833Y-54972319D01*
X123645833Y-54972319D02*
X123217262Y-55972319D01*
X90823333Y-73284819D02*
X90490000Y-72808628D01*
X90251905Y-73284819D02*
X90251905Y-72284819D01*
X90251905Y-72284819D02*
X90632857Y-72284819D01*
X90632857Y-72284819D02*
X90728095Y-72332438D01*
X90728095Y-72332438D02*
X90775714Y-72380057D01*
X90775714Y-72380057D02*
X90823333Y-72475295D01*
X90823333Y-72475295D02*
X90823333Y-72618152D01*
X90823333Y-72618152D02*
X90775714Y-72713390D01*
X90775714Y-72713390D02*
X90728095Y-72761009D01*
X90728095Y-72761009D02*
X90632857Y-72808628D01*
X90632857Y-72808628D02*
X90251905Y-72808628D01*
X91728095Y-72284819D02*
X91251905Y-72284819D01*
X91251905Y-72284819D02*
X91204286Y-72761009D01*
X91204286Y-72761009D02*
X91251905Y-72713390D01*
X91251905Y-72713390D02*
X91347143Y-72665771D01*
X91347143Y-72665771D02*
X91585238Y-72665771D01*
X91585238Y-72665771D02*
X91680476Y-72713390D01*
X91680476Y-72713390D02*
X91728095Y-72761009D01*
X91728095Y-72761009D02*
X91775714Y-72856247D01*
X91775714Y-72856247D02*
X91775714Y-73094342D01*
X91775714Y-73094342D02*
X91728095Y-73189580D01*
X91728095Y-73189580D02*
X91680476Y-73237200D01*
X91680476Y-73237200D02*
X91585238Y-73284819D01*
X91585238Y-73284819D02*
X91347143Y-73284819D01*
X91347143Y-73284819D02*
X91251905Y-73237200D01*
X91251905Y-73237200D02*
X91204286Y-73189580D01*
X109629642Y-74739580D02*
X109582023Y-74787200D01*
X109582023Y-74787200D02*
X109439166Y-74834819D01*
X109439166Y-74834819D02*
X109343928Y-74834819D01*
X109343928Y-74834819D02*
X109201071Y-74787200D01*
X109201071Y-74787200D02*
X109105833Y-74691961D01*
X109105833Y-74691961D02*
X109058214Y-74596723D01*
X109058214Y-74596723D02*
X109010595Y-74406247D01*
X109010595Y-74406247D02*
X109010595Y-74263390D01*
X109010595Y-74263390D02*
X109058214Y-74072914D01*
X109058214Y-74072914D02*
X109105833Y-73977676D01*
X109105833Y-73977676D02*
X109201071Y-73882438D01*
X109201071Y-73882438D02*
X109343928Y-73834819D01*
X109343928Y-73834819D02*
X109439166Y-73834819D01*
X109439166Y-73834819D02*
X109582023Y-73882438D01*
X109582023Y-73882438D02*
X109629642Y-73930057D01*
X110582023Y-74834819D02*
X110010595Y-74834819D01*
X110296309Y-74834819D02*
X110296309Y-73834819D01*
X110296309Y-73834819D02*
X110201071Y-73977676D01*
X110201071Y-73977676D02*
X110105833Y-74072914D01*
X110105833Y-74072914D02*
X110010595Y-74120533D01*
X110915357Y-73834819D02*
X111534404Y-73834819D01*
X111534404Y-73834819D02*
X111201071Y-74215771D01*
X111201071Y-74215771D02*
X111343928Y-74215771D01*
X111343928Y-74215771D02*
X111439166Y-74263390D01*
X111439166Y-74263390D02*
X111486785Y-74311009D01*
X111486785Y-74311009D02*
X111534404Y-74406247D01*
X111534404Y-74406247D02*
X111534404Y-74644342D01*
X111534404Y-74644342D02*
X111486785Y-74739580D01*
X111486785Y-74739580D02*
X111439166Y-74787200D01*
X111439166Y-74787200D02*
X111343928Y-74834819D01*
X111343928Y-74834819D02*
X111058214Y-74834819D01*
X111058214Y-74834819D02*
X110962976Y-74787200D01*
X110962976Y-74787200D02*
X110915357Y-74739580D01*
X127429642Y-72119580D02*
X127382023Y-72167200D01*
X127382023Y-72167200D02*
X127239166Y-72214819D01*
X127239166Y-72214819D02*
X127143928Y-72214819D01*
X127143928Y-72214819D02*
X127001071Y-72167200D01*
X127001071Y-72167200D02*
X126905833Y-72071961D01*
X126905833Y-72071961D02*
X126858214Y-71976723D01*
X126858214Y-71976723D02*
X126810595Y-71786247D01*
X126810595Y-71786247D02*
X126810595Y-71643390D01*
X126810595Y-71643390D02*
X126858214Y-71452914D01*
X126858214Y-71452914D02*
X126905833Y-71357676D01*
X126905833Y-71357676D02*
X127001071Y-71262438D01*
X127001071Y-71262438D02*
X127143928Y-71214819D01*
X127143928Y-71214819D02*
X127239166Y-71214819D01*
X127239166Y-71214819D02*
X127382023Y-71262438D01*
X127382023Y-71262438D02*
X127429642Y-71310057D01*
X128382023Y-72214819D02*
X127810595Y-72214819D01*
X128096309Y-72214819D02*
X128096309Y-71214819D01*
X128096309Y-71214819D02*
X128001071Y-71357676D01*
X128001071Y-71357676D02*
X127905833Y-71452914D01*
X127905833Y-71452914D02*
X127810595Y-71500533D01*
X128858214Y-72214819D02*
X129048690Y-72214819D01*
X129048690Y-72214819D02*
X129143928Y-72167200D01*
X129143928Y-72167200D02*
X129191547Y-72119580D01*
X129191547Y-72119580D02*
X129286785Y-71976723D01*
X129286785Y-71976723D02*
X129334404Y-71786247D01*
X129334404Y-71786247D02*
X129334404Y-71405295D01*
X129334404Y-71405295D02*
X129286785Y-71310057D01*
X129286785Y-71310057D02*
X129239166Y-71262438D01*
X129239166Y-71262438D02*
X129143928Y-71214819D01*
X129143928Y-71214819D02*
X128953452Y-71214819D01*
X128953452Y-71214819D02*
X128858214Y-71262438D01*
X128858214Y-71262438D02*
X128810595Y-71310057D01*
X128810595Y-71310057D02*
X128762976Y-71405295D01*
X128762976Y-71405295D02*
X128762976Y-71643390D01*
X128762976Y-71643390D02*
X128810595Y-71738628D01*
X128810595Y-71738628D02*
X128858214Y-71786247D01*
X128858214Y-71786247D02*
X128953452Y-71833866D01*
X128953452Y-71833866D02*
X129143928Y-71833866D01*
X129143928Y-71833866D02*
X129239166Y-71786247D01*
X129239166Y-71786247D02*
X129286785Y-71738628D01*
X129286785Y-71738628D02*
X129334404Y-71643390D01*
X87238095Y-54054819D02*
X87238095Y-54864342D01*
X87238095Y-54864342D02*
X87285714Y-54959580D01*
X87285714Y-54959580D02*
X87333333Y-55007200D01*
X87333333Y-55007200D02*
X87428571Y-55054819D01*
X87428571Y-55054819D02*
X87619047Y-55054819D01*
X87619047Y-55054819D02*
X87714285Y-55007200D01*
X87714285Y-55007200D02*
X87761904Y-54959580D01*
X87761904Y-54959580D02*
X87809523Y-54864342D01*
X87809523Y-54864342D02*
X87809523Y-54054819D01*
X88238095Y-54150057D02*
X88285714Y-54102438D01*
X88285714Y-54102438D02*
X88380952Y-54054819D01*
X88380952Y-54054819D02*
X88619047Y-54054819D01*
X88619047Y-54054819D02*
X88714285Y-54102438D01*
X88714285Y-54102438D02*
X88761904Y-54150057D01*
X88761904Y-54150057D02*
X88809523Y-54245295D01*
X88809523Y-54245295D02*
X88809523Y-54340533D01*
X88809523Y-54340533D02*
X88761904Y-54483390D01*
X88761904Y-54483390D02*
X88190476Y-55054819D01*
X88190476Y-55054819D02*
X88809523Y-55054819D01*
X115095833Y-67834819D02*
X114619643Y-67834819D01*
X114619643Y-67834819D02*
X114619643Y-66834819D01*
X115381548Y-66930057D02*
X115429167Y-66882438D01*
X115429167Y-66882438D02*
X115524405Y-66834819D01*
X115524405Y-66834819D02*
X115762500Y-66834819D01*
X115762500Y-66834819D02*
X115857738Y-66882438D01*
X115857738Y-66882438D02*
X115905357Y-66930057D01*
X115905357Y-66930057D02*
X115952976Y-67025295D01*
X115952976Y-67025295D02*
X115952976Y-67120533D01*
X115952976Y-67120533D02*
X115905357Y-67263390D01*
X115905357Y-67263390D02*
X115333929Y-67834819D01*
X115333929Y-67834819D02*
X115952976Y-67834819D01*
X117524405Y-69334819D02*
X117524405Y-68334819D01*
X117524405Y-68334819D02*
X117762500Y-68334819D01*
X117762500Y-68334819D02*
X117905357Y-68382438D01*
X117905357Y-68382438D02*
X118000595Y-68477676D01*
X118000595Y-68477676D02*
X118048214Y-68572914D01*
X118048214Y-68572914D02*
X118095833Y-68763390D01*
X118095833Y-68763390D02*
X118095833Y-68906247D01*
X118095833Y-68906247D02*
X118048214Y-69096723D01*
X118048214Y-69096723D02*
X118000595Y-69191961D01*
X118000595Y-69191961D02*
X117905357Y-69287200D01*
X117905357Y-69287200D02*
X117762500Y-69334819D01*
X117762500Y-69334819D02*
X117524405Y-69334819D01*
X119048214Y-69334819D02*
X118476786Y-69334819D01*
X118762500Y-69334819D02*
X118762500Y-68334819D01*
X118762500Y-68334819D02*
X118667262Y-68477676D01*
X118667262Y-68477676D02*
X118572024Y-68572914D01*
X118572024Y-68572914D02*
X118476786Y-68620533D01*
X126415833Y-58359580D02*
X126368214Y-58407200D01*
X126368214Y-58407200D02*
X126225357Y-58454819D01*
X126225357Y-58454819D02*
X126130119Y-58454819D01*
X126130119Y-58454819D02*
X125987262Y-58407200D01*
X125987262Y-58407200D02*
X125892024Y-58311961D01*
X125892024Y-58311961D02*
X125844405Y-58216723D01*
X125844405Y-58216723D02*
X125796786Y-58026247D01*
X125796786Y-58026247D02*
X125796786Y-57883390D01*
X125796786Y-57883390D02*
X125844405Y-57692914D01*
X125844405Y-57692914D02*
X125892024Y-57597676D01*
X125892024Y-57597676D02*
X125987262Y-57502438D01*
X125987262Y-57502438D02*
X126130119Y-57454819D01*
X126130119Y-57454819D02*
X126225357Y-57454819D01*
X126225357Y-57454819D02*
X126368214Y-57502438D01*
X126368214Y-57502438D02*
X126415833Y-57550057D01*
X126749167Y-57454819D02*
X127415833Y-57454819D01*
X127415833Y-57454819D02*
X126987262Y-58454819D01*
X115595833Y-71334819D02*
X115262500Y-70858628D01*
X115024405Y-71334819D02*
X115024405Y-70334819D01*
X115024405Y-70334819D02*
X115405357Y-70334819D01*
X115405357Y-70334819D02*
X115500595Y-70382438D01*
X115500595Y-70382438D02*
X115548214Y-70430057D01*
X115548214Y-70430057D02*
X115595833Y-70525295D01*
X115595833Y-70525295D02*
X115595833Y-70668152D01*
X115595833Y-70668152D02*
X115548214Y-70763390D01*
X115548214Y-70763390D02*
X115500595Y-70811009D01*
X115500595Y-70811009D02*
X115405357Y-70858628D01*
X115405357Y-70858628D02*
X115024405Y-70858628D01*
X116548214Y-71334819D02*
X115976786Y-71334819D01*
X116262500Y-71334819D02*
X116262500Y-70334819D01*
X116262500Y-70334819D02*
X116167262Y-70477676D01*
X116167262Y-70477676D02*
X116072024Y-70572914D01*
X116072024Y-70572914D02*
X115976786Y-70620533D01*
X113095833Y-74749580D02*
X113048214Y-74797200D01*
X113048214Y-74797200D02*
X112905357Y-74844819D01*
X112905357Y-74844819D02*
X112810119Y-74844819D01*
X112810119Y-74844819D02*
X112667262Y-74797200D01*
X112667262Y-74797200D02*
X112572024Y-74701961D01*
X112572024Y-74701961D02*
X112524405Y-74606723D01*
X112524405Y-74606723D02*
X112476786Y-74416247D01*
X112476786Y-74416247D02*
X112476786Y-74273390D01*
X112476786Y-74273390D02*
X112524405Y-74082914D01*
X112524405Y-74082914D02*
X112572024Y-73987676D01*
X112572024Y-73987676D02*
X112667262Y-73892438D01*
X112667262Y-73892438D02*
X112810119Y-73844819D01*
X112810119Y-73844819D02*
X112905357Y-73844819D01*
X112905357Y-73844819D02*
X113048214Y-73892438D01*
X113048214Y-73892438D02*
X113095833Y-73940057D01*
X113476786Y-73940057D02*
X113524405Y-73892438D01*
X113524405Y-73892438D02*
X113619643Y-73844819D01*
X113619643Y-73844819D02*
X113857738Y-73844819D01*
X113857738Y-73844819D02*
X113952976Y-73892438D01*
X113952976Y-73892438D02*
X114000595Y-73940057D01*
X114000595Y-73940057D02*
X114048214Y-74035295D01*
X114048214Y-74035295D02*
X114048214Y-74130533D01*
X114048214Y-74130533D02*
X114000595Y-74273390D01*
X114000595Y-74273390D02*
X113429167Y-74844819D01*
X113429167Y-74844819D02*
X114048214Y-74844819D01*
X115595833Y-74749580D02*
X115548214Y-74797200D01*
X115548214Y-74797200D02*
X115405357Y-74844819D01*
X115405357Y-74844819D02*
X115310119Y-74844819D01*
X115310119Y-74844819D02*
X115167262Y-74797200D01*
X115167262Y-74797200D02*
X115072024Y-74701961D01*
X115072024Y-74701961D02*
X115024405Y-74606723D01*
X115024405Y-74606723D02*
X114976786Y-74416247D01*
X114976786Y-74416247D02*
X114976786Y-74273390D01*
X114976786Y-74273390D02*
X115024405Y-74082914D01*
X115024405Y-74082914D02*
X115072024Y-73987676D01*
X115072024Y-73987676D02*
X115167262Y-73892438D01*
X115167262Y-73892438D02*
X115310119Y-73844819D01*
X115310119Y-73844819D02*
X115405357Y-73844819D01*
X115405357Y-73844819D02*
X115548214Y-73892438D01*
X115548214Y-73892438D02*
X115595833Y-73940057D01*
X115929167Y-73844819D02*
X116548214Y-73844819D01*
X116548214Y-73844819D02*
X116214881Y-74225771D01*
X116214881Y-74225771D02*
X116357738Y-74225771D01*
X116357738Y-74225771D02*
X116452976Y-74273390D01*
X116452976Y-74273390D02*
X116500595Y-74321009D01*
X116500595Y-74321009D02*
X116548214Y-74416247D01*
X116548214Y-74416247D02*
X116548214Y-74654342D01*
X116548214Y-74654342D02*
X116500595Y-74749580D01*
X116500595Y-74749580D02*
X116452976Y-74797200D01*
X116452976Y-74797200D02*
X116357738Y-74844819D01*
X116357738Y-74844819D02*
X116072024Y-74844819D01*
X116072024Y-74844819D02*
X115976786Y-74797200D01*
X115976786Y-74797200D02*
X115929167Y-74749580D01*
X115080833Y-65834819D02*
X114604643Y-65834819D01*
X114604643Y-65834819D02*
X114604643Y-64834819D01*
X115937976Y-65834819D02*
X115366548Y-65834819D01*
X115652262Y-65834819D02*
X115652262Y-64834819D01*
X115652262Y-64834819D02*
X115557024Y-64977676D01*
X115557024Y-64977676D02*
X115461786Y-65072914D01*
X115461786Y-65072914D02*
X115366548Y-65120533D01*
X100645833Y-67387080D02*
X100598214Y-67434700D01*
X100598214Y-67434700D02*
X100455357Y-67482319D01*
X100455357Y-67482319D02*
X100360119Y-67482319D01*
X100360119Y-67482319D02*
X100217262Y-67434700D01*
X100217262Y-67434700D02*
X100122024Y-67339461D01*
X100122024Y-67339461D02*
X100074405Y-67244223D01*
X100074405Y-67244223D02*
X100026786Y-67053747D01*
X100026786Y-67053747D02*
X100026786Y-66910890D01*
X100026786Y-66910890D02*
X100074405Y-66720414D01*
X100074405Y-66720414D02*
X100122024Y-66625176D01*
X100122024Y-66625176D02*
X100217262Y-66529938D01*
X100217262Y-66529938D02*
X100360119Y-66482319D01*
X100360119Y-66482319D02*
X100455357Y-66482319D01*
X100455357Y-66482319D02*
X100598214Y-66529938D01*
X100598214Y-66529938D02*
X100645833Y-66577557D01*
X101502976Y-66815652D02*
X101502976Y-67482319D01*
X101264881Y-66434700D02*
X101026786Y-67148985D01*
X101026786Y-67148985D02*
X101645833Y-67148985D01*
X82856666Y-57129819D02*
X82856666Y-57844104D01*
X82856666Y-57844104D02*
X82809047Y-57986961D01*
X82809047Y-57986961D02*
X82713809Y-58082200D01*
X82713809Y-58082200D02*
X82570952Y-58129819D01*
X82570952Y-58129819D02*
X82475714Y-58129819D01*
X83856666Y-58129819D02*
X83285238Y-58129819D01*
X83570952Y-58129819D02*
X83570952Y-57129819D01*
X83570952Y-57129819D02*
X83475714Y-57272676D01*
X83475714Y-57272676D02*
X83380476Y-57367914D01*
X83380476Y-57367914D02*
X83285238Y-57415533D01*
X125095833Y-60334819D02*
X124762500Y-59858628D01*
X124524405Y-60334819D02*
X124524405Y-59334819D01*
X124524405Y-59334819D02*
X124905357Y-59334819D01*
X124905357Y-59334819D02*
X125000595Y-59382438D01*
X125000595Y-59382438D02*
X125048214Y-59430057D01*
X125048214Y-59430057D02*
X125095833Y-59525295D01*
X125095833Y-59525295D02*
X125095833Y-59668152D01*
X125095833Y-59668152D02*
X125048214Y-59763390D01*
X125048214Y-59763390D02*
X125000595Y-59811009D01*
X125000595Y-59811009D02*
X124905357Y-59858628D01*
X124905357Y-59858628D02*
X124524405Y-59858628D01*
X125429167Y-59334819D02*
X126048214Y-59334819D01*
X126048214Y-59334819D02*
X125714881Y-59715771D01*
X125714881Y-59715771D02*
X125857738Y-59715771D01*
X125857738Y-59715771D02*
X125952976Y-59763390D01*
X125952976Y-59763390D02*
X126000595Y-59811009D01*
X126000595Y-59811009D02*
X126048214Y-59906247D01*
X126048214Y-59906247D02*
X126048214Y-60144342D01*
X126048214Y-60144342D02*
X126000595Y-60239580D01*
X126000595Y-60239580D02*
X125952976Y-60287200D01*
X125952976Y-60287200D02*
X125857738Y-60334819D01*
X125857738Y-60334819D02*
X125572024Y-60334819D01*
X125572024Y-60334819D02*
X125476786Y-60287200D01*
X125476786Y-60287200D02*
X125429167Y-60239580D01*
X100645833Y-64972319D02*
X100312500Y-64496128D01*
X100074405Y-64972319D02*
X100074405Y-63972319D01*
X100074405Y-63972319D02*
X100455357Y-63972319D01*
X100455357Y-63972319D02*
X100550595Y-64019938D01*
X100550595Y-64019938D02*
X100598214Y-64067557D01*
X100598214Y-64067557D02*
X100645833Y-64162795D01*
X100645833Y-64162795D02*
X100645833Y-64305652D01*
X100645833Y-64305652D02*
X100598214Y-64400890D01*
X100598214Y-64400890D02*
X100550595Y-64448509D01*
X100550595Y-64448509D02*
X100455357Y-64496128D01*
X100455357Y-64496128D02*
X100074405Y-64496128D01*
X101026786Y-64067557D02*
X101074405Y-64019938D01*
X101074405Y-64019938D02*
X101169643Y-63972319D01*
X101169643Y-63972319D02*
X101407738Y-63972319D01*
X101407738Y-63972319D02*
X101502976Y-64019938D01*
X101502976Y-64019938D02*
X101550595Y-64067557D01*
X101550595Y-64067557D02*
X101598214Y-64162795D01*
X101598214Y-64162795D02*
X101598214Y-64258033D01*
X101598214Y-64258033D02*
X101550595Y-64400890D01*
X101550595Y-64400890D02*
X100979167Y-64972319D01*
X100979167Y-64972319D02*
X101598214Y-64972319D01*
X118119642Y-66359580D02*
X118072023Y-66407200D01*
X118072023Y-66407200D02*
X117929166Y-66454819D01*
X117929166Y-66454819D02*
X117833928Y-66454819D01*
X117833928Y-66454819D02*
X117691071Y-66407200D01*
X117691071Y-66407200D02*
X117595833Y-66311961D01*
X117595833Y-66311961D02*
X117548214Y-66216723D01*
X117548214Y-66216723D02*
X117500595Y-66026247D01*
X117500595Y-66026247D02*
X117500595Y-65883390D01*
X117500595Y-65883390D02*
X117548214Y-65692914D01*
X117548214Y-65692914D02*
X117595833Y-65597676D01*
X117595833Y-65597676D02*
X117691071Y-65502438D01*
X117691071Y-65502438D02*
X117833928Y-65454819D01*
X117833928Y-65454819D02*
X117929166Y-65454819D01*
X117929166Y-65454819D02*
X118072023Y-65502438D01*
X118072023Y-65502438D02*
X118119642Y-65550057D01*
X119072023Y-66454819D02*
X118500595Y-66454819D01*
X118786309Y-66454819D02*
X118786309Y-65454819D01*
X118786309Y-65454819D02*
X118691071Y-65597676D01*
X118691071Y-65597676D02*
X118595833Y-65692914D01*
X118595833Y-65692914D02*
X118500595Y-65740533D01*
X120024404Y-66454819D02*
X119452976Y-66454819D01*
X119738690Y-66454819D02*
X119738690Y-65454819D01*
X119738690Y-65454819D02*
X119643452Y-65597676D01*
X119643452Y-65597676D02*
X119548214Y-65692914D01*
X119548214Y-65692914D02*
X119452976Y-65740533D01*
X99702976Y-60342319D02*
X100369642Y-61342319D01*
X100369642Y-60342319D02*
X99702976Y-61342319D01*
X101274404Y-61342319D02*
X100702976Y-61342319D01*
X100988690Y-61342319D02*
X100988690Y-60342319D01*
X100988690Y-60342319D02*
X100893452Y-60485176D01*
X100893452Y-60485176D02*
X100798214Y-60580414D01*
X100798214Y-60580414D02*
X100702976Y-60628033D01*
X115095833Y-63749580D02*
X115048214Y-63797200D01*
X115048214Y-63797200D02*
X114905357Y-63844819D01*
X114905357Y-63844819D02*
X114810119Y-63844819D01*
X114810119Y-63844819D02*
X114667262Y-63797200D01*
X114667262Y-63797200D02*
X114572024Y-63701961D01*
X114572024Y-63701961D02*
X114524405Y-63606723D01*
X114524405Y-63606723D02*
X114476786Y-63416247D01*
X114476786Y-63416247D02*
X114476786Y-63273390D01*
X114476786Y-63273390D02*
X114524405Y-63082914D01*
X114524405Y-63082914D02*
X114572024Y-62987676D01*
X114572024Y-62987676D02*
X114667262Y-62892438D01*
X114667262Y-62892438D02*
X114810119Y-62844819D01*
X114810119Y-62844819D02*
X114905357Y-62844819D01*
X114905357Y-62844819D02*
X115048214Y-62892438D01*
X115048214Y-62892438D02*
X115095833Y-62940057D01*
X116048214Y-63844819D02*
X115476786Y-63844819D01*
X115762500Y-63844819D02*
X115762500Y-62844819D01*
X115762500Y-62844819D02*
X115667262Y-62987676D01*
X115667262Y-62987676D02*
X115572024Y-63082914D01*
X115572024Y-63082914D02*
X115476786Y-63130533D01*
X128005833Y-62324819D02*
X127672500Y-61848628D01*
X127434405Y-62324819D02*
X127434405Y-61324819D01*
X127434405Y-61324819D02*
X127815357Y-61324819D01*
X127815357Y-61324819D02*
X127910595Y-61372438D01*
X127910595Y-61372438D02*
X127958214Y-61420057D01*
X127958214Y-61420057D02*
X128005833Y-61515295D01*
X128005833Y-61515295D02*
X128005833Y-61658152D01*
X128005833Y-61658152D02*
X127958214Y-61753390D01*
X127958214Y-61753390D02*
X127910595Y-61801009D01*
X127910595Y-61801009D02*
X127815357Y-61848628D01*
X127815357Y-61848628D02*
X127434405Y-61848628D01*
X128482024Y-62324819D02*
X128672500Y-62324819D01*
X128672500Y-62324819D02*
X128767738Y-62277200D01*
X128767738Y-62277200D02*
X128815357Y-62229580D01*
X128815357Y-62229580D02*
X128910595Y-62086723D01*
X128910595Y-62086723D02*
X128958214Y-61896247D01*
X128958214Y-61896247D02*
X128958214Y-61515295D01*
X128958214Y-61515295D02*
X128910595Y-61420057D01*
X128910595Y-61420057D02*
X128862976Y-61372438D01*
X128862976Y-61372438D02*
X128767738Y-61324819D01*
X128767738Y-61324819D02*
X128577262Y-61324819D01*
X128577262Y-61324819D02*
X128482024Y-61372438D01*
X128482024Y-61372438D02*
X128434405Y-61420057D01*
X128434405Y-61420057D02*
X128386786Y-61515295D01*
X128386786Y-61515295D02*
X128386786Y-61753390D01*
X128386786Y-61753390D02*
X128434405Y-61848628D01*
X128434405Y-61848628D02*
X128482024Y-61896247D01*
X128482024Y-61896247D02*
X128577262Y-61943866D01*
X128577262Y-61943866D02*
X128767738Y-61943866D01*
X128767738Y-61943866D02*
X128862976Y-61896247D01*
X128862976Y-61896247D02*
X128910595Y-61848628D01*
X128910595Y-61848628D02*
X128958214Y-61753390D01*
X104095833Y-73334819D02*
X103619643Y-73334819D01*
X103619643Y-73334819D02*
X103619643Y-72334819D01*
X104333929Y-72334819D02*
X104952976Y-72334819D01*
X104952976Y-72334819D02*
X104619643Y-72715771D01*
X104619643Y-72715771D02*
X104762500Y-72715771D01*
X104762500Y-72715771D02*
X104857738Y-72763390D01*
X104857738Y-72763390D02*
X104905357Y-72811009D01*
X104905357Y-72811009D02*
X104952976Y-72906247D01*
X104952976Y-72906247D02*
X104952976Y-73144342D01*
X104952976Y-73144342D02*
X104905357Y-73239580D01*
X104905357Y-73239580D02*
X104857738Y-73287200D01*
X104857738Y-73287200D02*
X104762500Y-73334819D01*
X104762500Y-73334819D02*
X104476786Y-73334819D01*
X104476786Y-73334819D02*
X104381548Y-73287200D01*
X104381548Y-73287200D02*
X104333929Y-73239580D01*
X127429642Y-68179580D02*
X127382023Y-68227200D01*
X127382023Y-68227200D02*
X127239166Y-68274819D01*
X127239166Y-68274819D02*
X127143928Y-68274819D01*
X127143928Y-68274819D02*
X127001071Y-68227200D01*
X127001071Y-68227200D02*
X126905833Y-68131961D01*
X126905833Y-68131961D02*
X126858214Y-68036723D01*
X126858214Y-68036723D02*
X126810595Y-67846247D01*
X126810595Y-67846247D02*
X126810595Y-67703390D01*
X126810595Y-67703390D02*
X126858214Y-67512914D01*
X126858214Y-67512914D02*
X126905833Y-67417676D01*
X126905833Y-67417676D02*
X127001071Y-67322438D01*
X127001071Y-67322438D02*
X127143928Y-67274819D01*
X127143928Y-67274819D02*
X127239166Y-67274819D01*
X127239166Y-67274819D02*
X127382023Y-67322438D01*
X127382023Y-67322438D02*
X127429642Y-67370057D01*
X128382023Y-68274819D02*
X127810595Y-68274819D01*
X128096309Y-68274819D02*
X128096309Y-67274819D01*
X128096309Y-67274819D02*
X128001071Y-67417676D01*
X128001071Y-67417676D02*
X127905833Y-67512914D01*
X127905833Y-67512914D02*
X127810595Y-67560533D01*
X129286785Y-67274819D02*
X128810595Y-67274819D01*
X128810595Y-67274819D02*
X128762976Y-67751009D01*
X128762976Y-67751009D02*
X128810595Y-67703390D01*
X128810595Y-67703390D02*
X128905833Y-67655771D01*
X128905833Y-67655771D02*
X129143928Y-67655771D01*
X129143928Y-67655771D02*
X129239166Y-67703390D01*
X129239166Y-67703390D02*
X129286785Y-67751009D01*
X129286785Y-67751009D02*
X129334404Y-67846247D01*
X129334404Y-67846247D02*
X129334404Y-68084342D01*
X129334404Y-68084342D02*
X129286785Y-68179580D01*
X129286785Y-68179580D02*
X129239166Y-68227200D01*
X129239166Y-68227200D02*
X129143928Y-68274819D01*
X129143928Y-68274819D02*
X128905833Y-68274819D01*
X128905833Y-68274819D02*
X128810595Y-68227200D01*
X128810595Y-68227200D02*
X128762976Y-68179580D01*
X125035833Y-70149580D02*
X124988214Y-70197200D01*
X124988214Y-70197200D02*
X124845357Y-70244819D01*
X124845357Y-70244819D02*
X124750119Y-70244819D01*
X124750119Y-70244819D02*
X124607262Y-70197200D01*
X124607262Y-70197200D02*
X124512024Y-70101961D01*
X124512024Y-70101961D02*
X124464405Y-70006723D01*
X124464405Y-70006723D02*
X124416786Y-69816247D01*
X124416786Y-69816247D02*
X124416786Y-69673390D01*
X124416786Y-69673390D02*
X124464405Y-69482914D01*
X124464405Y-69482914D02*
X124512024Y-69387676D01*
X124512024Y-69387676D02*
X124607262Y-69292438D01*
X124607262Y-69292438D02*
X124750119Y-69244819D01*
X124750119Y-69244819D02*
X124845357Y-69244819D01*
X124845357Y-69244819D02*
X124988214Y-69292438D01*
X124988214Y-69292438D02*
X125035833Y-69340057D01*
X125607262Y-69673390D02*
X125512024Y-69625771D01*
X125512024Y-69625771D02*
X125464405Y-69578152D01*
X125464405Y-69578152D02*
X125416786Y-69482914D01*
X125416786Y-69482914D02*
X125416786Y-69435295D01*
X125416786Y-69435295D02*
X125464405Y-69340057D01*
X125464405Y-69340057D02*
X125512024Y-69292438D01*
X125512024Y-69292438D02*
X125607262Y-69244819D01*
X125607262Y-69244819D02*
X125797738Y-69244819D01*
X125797738Y-69244819D02*
X125892976Y-69292438D01*
X125892976Y-69292438D02*
X125940595Y-69340057D01*
X125940595Y-69340057D02*
X125988214Y-69435295D01*
X125988214Y-69435295D02*
X125988214Y-69482914D01*
X125988214Y-69482914D02*
X125940595Y-69578152D01*
X125940595Y-69578152D02*
X125892976Y-69625771D01*
X125892976Y-69625771D02*
X125797738Y-69673390D01*
X125797738Y-69673390D02*
X125607262Y-69673390D01*
X125607262Y-69673390D02*
X125512024Y-69721009D01*
X125512024Y-69721009D02*
X125464405Y-69768628D01*
X125464405Y-69768628D02*
X125416786Y-69863866D01*
X125416786Y-69863866D02*
X125416786Y-70054342D01*
X125416786Y-70054342D02*
X125464405Y-70149580D01*
X125464405Y-70149580D02*
X125512024Y-70197200D01*
X125512024Y-70197200D02*
X125607262Y-70244819D01*
X125607262Y-70244819D02*
X125797738Y-70244819D01*
X125797738Y-70244819D02*
X125892976Y-70197200D01*
X125892976Y-70197200D02*
X125940595Y-70149580D01*
X125940595Y-70149580D02*
X125988214Y-70054342D01*
X125988214Y-70054342D02*
X125988214Y-69863866D01*
X125988214Y-69863866D02*
X125940595Y-69768628D01*
X125940595Y-69768628D02*
X125892976Y-69721009D01*
X125892976Y-69721009D02*
X125797738Y-69673390D01*
X98313095Y-71317319D02*
X98313095Y-72126842D01*
X98313095Y-72126842D02*
X98360714Y-72222080D01*
X98360714Y-72222080D02*
X98408333Y-72269700D01*
X98408333Y-72269700D02*
X98503571Y-72317319D01*
X98503571Y-72317319D02*
X98694047Y-72317319D01*
X98694047Y-72317319D02*
X98789285Y-72269700D01*
X98789285Y-72269700D02*
X98836904Y-72222080D01*
X98836904Y-72222080D02*
X98884523Y-72126842D01*
X98884523Y-72126842D02*
X98884523Y-71317319D01*
X99789285Y-71650652D02*
X99789285Y-72317319D01*
X99551190Y-71269700D02*
X99313095Y-71983985D01*
X99313095Y-71983985D02*
X99932142Y-71983985D01*
X92454819Y-50071904D02*
X93264342Y-50071904D01*
X93264342Y-50071904D02*
X93359580Y-50024285D01*
X93359580Y-50024285D02*
X93407200Y-49976666D01*
X93407200Y-49976666D02*
X93454819Y-49881428D01*
X93454819Y-49881428D02*
X93454819Y-49690952D01*
X93454819Y-49690952D02*
X93407200Y-49595714D01*
X93407200Y-49595714D02*
X93359580Y-49548095D01*
X93359580Y-49548095D02*
X93264342Y-49500476D01*
X93264342Y-49500476D02*
X92454819Y-49500476D01*
X92454819Y-48548095D02*
X92454819Y-49024285D01*
X92454819Y-49024285D02*
X92931009Y-49071904D01*
X92931009Y-49071904D02*
X92883390Y-49024285D01*
X92883390Y-49024285D02*
X92835771Y-48929047D01*
X92835771Y-48929047D02*
X92835771Y-48690952D01*
X92835771Y-48690952D02*
X92883390Y-48595714D01*
X92883390Y-48595714D02*
X92931009Y-48548095D01*
X92931009Y-48548095D02*
X93026247Y-48500476D01*
X93026247Y-48500476D02*
X93264342Y-48500476D01*
X93264342Y-48500476D02*
X93359580Y-48548095D01*
X93359580Y-48548095D02*
X93407200Y-48595714D01*
X93407200Y-48595714D02*
X93454819Y-48690952D01*
X93454819Y-48690952D02*
X93454819Y-48929047D01*
X93454819Y-48929047D02*
X93407200Y-49024285D01*
X93407200Y-49024285D02*
X93359580Y-49071904D01*
X107800595Y-61874819D02*
X107800595Y-62684342D01*
X107800595Y-62684342D02*
X107848214Y-62779580D01*
X107848214Y-62779580D02*
X107895833Y-62827200D01*
X107895833Y-62827200D02*
X107991071Y-62874819D01*
X107991071Y-62874819D02*
X108181547Y-62874819D01*
X108181547Y-62874819D02*
X108276785Y-62827200D01*
X108276785Y-62827200D02*
X108324404Y-62779580D01*
X108324404Y-62779580D02*
X108372023Y-62684342D01*
X108372023Y-62684342D02*
X108372023Y-61874819D01*
X109372023Y-62874819D02*
X108800595Y-62874819D01*
X109086309Y-62874819D02*
X109086309Y-61874819D01*
X109086309Y-61874819D02*
X108991071Y-62017676D01*
X108991071Y-62017676D02*
X108895833Y-62112914D01*
X108895833Y-62112914D02*
X108800595Y-62160533D01*
X116479166Y-56077319D02*
X116479166Y-56791604D01*
X116479166Y-56791604D02*
X116431547Y-56934461D01*
X116431547Y-56934461D02*
X116336309Y-57029700D01*
X116336309Y-57029700D02*
X116193452Y-57077319D01*
X116193452Y-57077319D02*
X116098214Y-57077319D01*
X116907738Y-56172557D02*
X116955357Y-56124938D01*
X116955357Y-56124938D02*
X117050595Y-56077319D01*
X117050595Y-56077319D02*
X117288690Y-56077319D01*
X117288690Y-56077319D02*
X117383928Y-56124938D01*
X117383928Y-56124938D02*
X117431547Y-56172557D01*
X117431547Y-56172557D02*
X117479166Y-56267795D01*
X117479166Y-56267795D02*
X117479166Y-56363033D01*
X117479166Y-56363033D02*
X117431547Y-56505890D01*
X117431547Y-56505890D02*
X116860119Y-57077319D01*
X116860119Y-57077319D02*
X117479166Y-57077319D01*
X127429642Y-66209580D02*
X127382023Y-66257200D01*
X127382023Y-66257200D02*
X127239166Y-66304819D01*
X127239166Y-66304819D02*
X127143928Y-66304819D01*
X127143928Y-66304819D02*
X127001071Y-66257200D01*
X127001071Y-66257200D02*
X126905833Y-66161961D01*
X126905833Y-66161961D02*
X126858214Y-66066723D01*
X126858214Y-66066723D02*
X126810595Y-65876247D01*
X126810595Y-65876247D02*
X126810595Y-65733390D01*
X126810595Y-65733390D02*
X126858214Y-65542914D01*
X126858214Y-65542914D02*
X126905833Y-65447676D01*
X126905833Y-65447676D02*
X127001071Y-65352438D01*
X127001071Y-65352438D02*
X127143928Y-65304819D01*
X127143928Y-65304819D02*
X127239166Y-65304819D01*
X127239166Y-65304819D02*
X127382023Y-65352438D01*
X127382023Y-65352438D02*
X127429642Y-65400057D01*
X128382023Y-66304819D02*
X127810595Y-66304819D01*
X128096309Y-66304819D02*
X128096309Y-65304819D01*
X128096309Y-65304819D02*
X128001071Y-65447676D01*
X128001071Y-65447676D02*
X127905833Y-65542914D01*
X127905833Y-65542914D02*
X127810595Y-65590533D01*
X128762976Y-65400057D02*
X128810595Y-65352438D01*
X128810595Y-65352438D02*
X128905833Y-65304819D01*
X128905833Y-65304819D02*
X129143928Y-65304819D01*
X129143928Y-65304819D02*
X129239166Y-65352438D01*
X129239166Y-65352438D02*
X129286785Y-65400057D01*
X129286785Y-65400057D02*
X129334404Y-65495295D01*
X129334404Y-65495295D02*
X129334404Y-65590533D01*
X129334404Y-65590533D02*
X129286785Y-65733390D01*
X129286785Y-65733390D02*
X128715357Y-66304819D01*
X128715357Y-66304819D02*
X129334404Y-66304819D01*
X125095833Y-62324819D02*
X124762500Y-61848628D01*
X124524405Y-62324819D02*
X124524405Y-61324819D01*
X124524405Y-61324819D02*
X124905357Y-61324819D01*
X124905357Y-61324819D02*
X125000595Y-61372438D01*
X125000595Y-61372438D02*
X125048214Y-61420057D01*
X125048214Y-61420057D02*
X125095833Y-61515295D01*
X125095833Y-61515295D02*
X125095833Y-61658152D01*
X125095833Y-61658152D02*
X125048214Y-61753390D01*
X125048214Y-61753390D02*
X125000595Y-61801009D01*
X125000595Y-61801009D02*
X124905357Y-61848628D01*
X124905357Y-61848628D02*
X124524405Y-61848628D01*
X125952976Y-61658152D02*
X125952976Y-62324819D01*
X125714881Y-61277200D02*
X125476786Y-61991485D01*
X125476786Y-61991485D02*
X126095833Y-61991485D01*
X125035833Y-68179580D02*
X124988214Y-68227200D01*
X124988214Y-68227200D02*
X124845357Y-68274819D01*
X124845357Y-68274819D02*
X124750119Y-68274819D01*
X124750119Y-68274819D02*
X124607262Y-68227200D01*
X124607262Y-68227200D02*
X124512024Y-68131961D01*
X124512024Y-68131961D02*
X124464405Y-68036723D01*
X124464405Y-68036723D02*
X124416786Y-67846247D01*
X124416786Y-67846247D02*
X124416786Y-67703390D01*
X124416786Y-67703390D02*
X124464405Y-67512914D01*
X124464405Y-67512914D02*
X124512024Y-67417676D01*
X124512024Y-67417676D02*
X124607262Y-67322438D01*
X124607262Y-67322438D02*
X124750119Y-67274819D01*
X124750119Y-67274819D02*
X124845357Y-67274819D01*
X124845357Y-67274819D02*
X124988214Y-67322438D01*
X124988214Y-67322438D02*
X125035833Y-67370057D01*
X125892976Y-67274819D02*
X125702500Y-67274819D01*
X125702500Y-67274819D02*
X125607262Y-67322438D01*
X125607262Y-67322438D02*
X125559643Y-67370057D01*
X125559643Y-67370057D02*
X125464405Y-67512914D01*
X125464405Y-67512914D02*
X125416786Y-67703390D01*
X125416786Y-67703390D02*
X125416786Y-68084342D01*
X125416786Y-68084342D02*
X125464405Y-68179580D01*
X125464405Y-68179580D02*
X125512024Y-68227200D01*
X125512024Y-68227200D02*
X125607262Y-68274819D01*
X125607262Y-68274819D02*
X125797738Y-68274819D01*
X125797738Y-68274819D02*
X125892976Y-68227200D01*
X125892976Y-68227200D02*
X125940595Y-68179580D01*
X125940595Y-68179580D02*
X125988214Y-68084342D01*
X125988214Y-68084342D02*
X125988214Y-67846247D01*
X125988214Y-67846247D02*
X125940595Y-67751009D01*
X125940595Y-67751009D02*
X125892976Y-67703390D01*
X125892976Y-67703390D02*
X125797738Y-67655771D01*
X125797738Y-67655771D02*
X125607262Y-67655771D01*
X125607262Y-67655771D02*
X125512024Y-67703390D01*
X125512024Y-67703390D02*
X125464405Y-67751009D01*
X125464405Y-67751009D02*
X125416786Y-67846247D01*
X119000595Y-61104819D02*
X119000595Y-61914342D01*
X119000595Y-61914342D02*
X119048214Y-62009580D01*
X119048214Y-62009580D02*
X119095833Y-62057200D01*
X119095833Y-62057200D02*
X119191071Y-62104819D01*
X119191071Y-62104819D02*
X119381547Y-62104819D01*
X119381547Y-62104819D02*
X119476785Y-62057200D01*
X119476785Y-62057200D02*
X119524404Y-62009580D01*
X119524404Y-62009580D02*
X119572023Y-61914342D01*
X119572023Y-61914342D02*
X119572023Y-61104819D01*
X119952976Y-61104819D02*
X120572023Y-61104819D01*
X120572023Y-61104819D02*
X120238690Y-61485771D01*
X120238690Y-61485771D02*
X120381547Y-61485771D01*
X120381547Y-61485771D02*
X120476785Y-61533390D01*
X120476785Y-61533390D02*
X120524404Y-61581009D01*
X120524404Y-61581009D02*
X120572023Y-61676247D01*
X120572023Y-61676247D02*
X120572023Y-61914342D01*
X120572023Y-61914342D02*
X120524404Y-62009580D01*
X120524404Y-62009580D02*
X120476785Y-62057200D01*
X120476785Y-62057200D02*
X120381547Y-62104819D01*
X120381547Y-62104819D02*
X120095833Y-62104819D01*
X120095833Y-62104819D02*
X120000595Y-62057200D01*
X120000595Y-62057200D02*
X119952976Y-62009580D01*
X125035833Y-72119580D02*
X124988214Y-72167200D01*
X124988214Y-72167200D02*
X124845357Y-72214819D01*
X124845357Y-72214819D02*
X124750119Y-72214819D01*
X124750119Y-72214819D02*
X124607262Y-72167200D01*
X124607262Y-72167200D02*
X124512024Y-72071961D01*
X124512024Y-72071961D02*
X124464405Y-71976723D01*
X124464405Y-71976723D02*
X124416786Y-71786247D01*
X124416786Y-71786247D02*
X124416786Y-71643390D01*
X124416786Y-71643390D02*
X124464405Y-71452914D01*
X124464405Y-71452914D02*
X124512024Y-71357676D01*
X124512024Y-71357676D02*
X124607262Y-71262438D01*
X124607262Y-71262438D02*
X124750119Y-71214819D01*
X124750119Y-71214819D02*
X124845357Y-71214819D01*
X124845357Y-71214819D02*
X124988214Y-71262438D01*
X124988214Y-71262438D02*
X125035833Y-71310057D01*
X125512024Y-72214819D02*
X125702500Y-72214819D01*
X125702500Y-72214819D02*
X125797738Y-72167200D01*
X125797738Y-72167200D02*
X125845357Y-72119580D01*
X125845357Y-72119580D02*
X125940595Y-71976723D01*
X125940595Y-71976723D02*
X125988214Y-71786247D01*
X125988214Y-71786247D02*
X125988214Y-71405295D01*
X125988214Y-71405295D02*
X125940595Y-71310057D01*
X125940595Y-71310057D02*
X125892976Y-71262438D01*
X125892976Y-71262438D02*
X125797738Y-71214819D01*
X125797738Y-71214819D02*
X125607262Y-71214819D01*
X125607262Y-71214819D02*
X125512024Y-71262438D01*
X125512024Y-71262438D02*
X125464405Y-71310057D01*
X125464405Y-71310057D02*
X125416786Y-71405295D01*
X125416786Y-71405295D02*
X125416786Y-71643390D01*
X125416786Y-71643390D02*
X125464405Y-71738628D01*
X125464405Y-71738628D02*
X125512024Y-71786247D01*
X125512024Y-71786247D02*
X125607262Y-71833866D01*
X125607262Y-71833866D02*
X125797738Y-71833866D01*
X125797738Y-71833866D02*
X125892976Y-71786247D01*
X125892976Y-71786247D02*
X125940595Y-71738628D01*
X125940595Y-71738628D02*
X125988214Y-71643390D01*
X117786309Y-71528628D02*
X117786309Y-72004819D01*
X117452976Y-71004819D02*
X117786309Y-71528628D01*
X117786309Y-71528628D02*
X118119642Y-71004819D01*
X118976785Y-72004819D02*
X118405357Y-72004819D01*
X118691071Y-72004819D02*
X118691071Y-71004819D01*
X118691071Y-71004819D02*
X118595833Y-71147676D01*
X118595833Y-71147676D02*
X118500595Y-71242914D01*
X118500595Y-71242914D02*
X118405357Y-71290533D01*
X93843333Y-73284819D02*
X93510000Y-72808628D01*
X93271905Y-73284819D02*
X93271905Y-72284819D01*
X93271905Y-72284819D02*
X93652857Y-72284819D01*
X93652857Y-72284819D02*
X93748095Y-72332438D01*
X93748095Y-72332438D02*
X93795714Y-72380057D01*
X93795714Y-72380057D02*
X93843333Y-72475295D01*
X93843333Y-72475295D02*
X93843333Y-72618152D01*
X93843333Y-72618152D02*
X93795714Y-72713390D01*
X93795714Y-72713390D02*
X93748095Y-72761009D01*
X93748095Y-72761009D02*
X93652857Y-72808628D01*
X93652857Y-72808628D02*
X93271905Y-72808628D01*
X94700476Y-72284819D02*
X94510000Y-72284819D01*
X94510000Y-72284819D02*
X94414762Y-72332438D01*
X94414762Y-72332438D02*
X94367143Y-72380057D01*
X94367143Y-72380057D02*
X94271905Y-72522914D01*
X94271905Y-72522914D02*
X94224286Y-72713390D01*
X94224286Y-72713390D02*
X94224286Y-73094342D01*
X94224286Y-73094342D02*
X94271905Y-73189580D01*
X94271905Y-73189580D02*
X94319524Y-73237200D01*
X94319524Y-73237200D02*
X94414762Y-73284819D01*
X94414762Y-73284819D02*
X94605238Y-73284819D01*
X94605238Y-73284819D02*
X94700476Y-73237200D01*
X94700476Y-73237200D02*
X94748095Y-73189580D01*
X94748095Y-73189580D02*
X94795714Y-73094342D01*
X94795714Y-73094342D02*
X94795714Y-72856247D01*
X94795714Y-72856247D02*
X94748095Y-72761009D01*
X94748095Y-72761009D02*
X94700476Y-72713390D01*
X94700476Y-72713390D02*
X94605238Y-72665771D01*
X94605238Y-72665771D02*
X94414762Y-72665771D01*
X94414762Y-72665771D02*
X94319524Y-72713390D01*
X94319524Y-72713390D02*
X94271905Y-72761009D01*
X94271905Y-72761009D02*
X94224286Y-72856247D01*
X86666666Y-43954819D02*
X86666666Y-44669104D01*
X86666666Y-44669104D02*
X86619047Y-44811961D01*
X86619047Y-44811961D02*
X86523809Y-44907200D01*
X86523809Y-44907200D02*
X86380952Y-44954819D01*
X86380952Y-44954819D02*
X86285714Y-44954819D01*
X87047619Y-43954819D02*
X87666666Y-43954819D01*
X87666666Y-43954819D02*
X87333333Y-44335771D01*
X87333333Y-44335771D02*
X87476190Y-44335771D01*
X87476190Y-44335771D02*
X87571428Y-44383390D01*
X87571428Y-44383390D02*
X87619047Y-44431009D01*
X87619047Y-44431009D02*
X87666666Y-44526247D01*
X87666666Y-44526247D02*
X87666666Y-44764342D01*
X87666666Y-44764342D02*
X87619047Y-44859580D01*
X87619047Y-44859580D02*
X87571428Y-44907200D01*
X87571428Y-44907200D02*
X87476190Y-44954819D01*
X87476190Y-44954819D02*
X87190476Y-44954819D01*
X87190476Y-44954819D02*
X87095238Y-44907200D01*
X87095238Y-44907200D02*
X87047619Y-44859580D01*
X125439642Y-55859580D02*
X125392023Y-55907200D01*
X125392023Y-55907200D02*
X125249166Y-55954819D01*
X125249166Y-55954819D02*
X125153928Y-55954819D01*
X125153928Y-55954819D02*
X125011071Y-55907200D01*
X125011071Y-55907200D02*
X124915833Y-55811961D01*
X124915833Y-55811961D02*
X124868214Y-55716723D01*
X124868214Y-55716723D02*
X124820595Y-55526247D01*
X124820595Y-55526247D02*
X124820595Y-55383390D01*
X124820595Y-55383390D02*
X124868214Y-55192914D01*
X124868214Y-55192914D02*
X124915833Y-55097676D01*
X124915833Y-55097676D02*
X125011071Y-55002438D01*
X125011071Y-55002438D02*
X125153928Y-54954819D01*
X125153928Y-54954819D02*
X125249166Y-54954819D01*
X125249166Y-54954819D02*
X125392023Y-55002438D01*
X125392023Y-55002438D02*
X125439642Y-55050057D01*
X126392023Y-55954819D02*
X125820595Y-55954819D01*
X126106309Y-55954819D02*
X126106309Y-54954819D01*
X126106309Y-54954819D02*
X126011071Y-55097676D01*
X126011071Y-55097676D02*
X125915833Y-55192914D01*
X125915833Y-55192914D02*
X125820595Y-55240533D01*
X127011071Y-54954819D02*
X127106309Y-54954819D01*
X127106309Y-54954819D02*
X127201547Y-55002438D01*
X127201547Y-55002438D02*
X127249166Y-55050057D01*
X127249166Y-55050057D02*
X127296785Y-55145295D01*
X127296785Y-55145295D02*
X127344404Y-55335771D01*
X127344404Y-55335771D02*
X127344404Y-55573866D01*
X127344404Y-55573866D02*
X127296785Y-55764342D01*
X127296785Y-55764342D02*
X127249166Y-55859580D01*
X127249166Y-55859580D02*
X127201547Y-55907200D01*
X127201547Y-55907200D02*
X127106309Y-55954819D01*
X127106309Y-55954819D02*
X127011071Y-55954819D01*
X127011071Y-55954819D02*
X126915833Y-55907200D01*
X126915833Y-55907200D02*
X126868214Y-55859580D01*
X126868214Y-55859580D02*
X126820595Y-55764342D01*
X126820595Y-55764342D02*
X126772976Y-55573866D01*
X126772976Y-55573866D02*
X126772976Y-55335771D01*
X126772976Y-55335771D02*
X126820595Y-55145295D01*
X126820595Y-55145295D02*
X126868214Y-55050057D01*
X126868214Y-55050057D02*
X126915833Y-55002438D01*
X126915833Y-55002438D02*
X127011071Y-54954819D01*
X106619642Y-74739580D02*
X106572023Y-74787200D01*
X106572023Y-74787200D02*
X106429166Y-74834819D01*
X106429166Y-74834819D02*
X106333928Y-74834819D01*
X106333928Y-74834819D02*
X106191071Y-74787200D01*
X106191071Y-74787200D02*
X106095833Y-74691961D01*
X106095833Y-74691961D02*
X106048214Y-74596723D01*
X106048214Y-74596723D02*
X106000595Y-74406247D01*
X106000595Y-74406247D02*
X106000595Y-74263390D01*
X106000595Y-74263390D02*
X106048214Y-74072914D01*
X106048214Y-74072914D02*
X106095833Y-73977676D01*
X106095833Y-73977676D02*
X106191071Y-73882438D01*
X106191071Y-73882438D02*
X106333928Y-73834819D01*
X106333928Y-73834819D02*
X106429166Y-73834819D01*
X106429166Y-73834819D02*
X106572023Y-73882438D01*
X106572023Y-73882438D02*
X106619642Y-73930057D01*
X107572023Y-74834819D02*
X107000595Y-74834819D01*
X107286309Y-74834819D02*
X107286309Y-73834819D01*
X107286309Y-73834819D02*
X107191071Y-73977676D01*
X107191071Y-73977676D02*
X107095833Y-74072914D01*
X107095833Y-74072914D02*
X107000595Y-74120533D01*
X108429166Y-74168152D02*
X108429166Y-74834819D01*
X108191071Y-73787200D02*
X107952976Y-74501485D01*
X107952976Y-74501485D02*
X108572023Y-74501485D01*
X89171666Y-63804819D02*
X89171666Y-64519104D01*
X89171666Y-64519104D02*
X89124047Y-64661961D01*
X89124047Y-64661961D02*
X89028809Y-64757200D01*
X89028809Y-64757200D02*
X88885952Y-64804819D01*
X88885952Y-64804819D02*
X88790714Y-64804819D01*
X90076428Y-64138152D02*
X90076428Y-64804819D01*
X89838333Y-63757200D02*
X89600238Y-64471485D01*
X89600238Y-64471485D02*
X90219285Y-64471485D01*
%TO.C,C5*%
D11*
X125094664Y-66650000D02*
X125310336Y-66650000D01*
X125094664Y-67370000D02*
X125310336Y-67370000D01*
%TO.C,SW1*%
X87940000Y-59650000D02*
X94060000Y-59650000D01*
X87940000Y-63350000D02*
X87940000Y-59650000D01*
X94060000Y-59650000D02*
X94060000Y-63350000D01*
X94060000Y-63350000D02*
X87940000Y-63350000D01*
%TO.C,C16*%
X127964664Y-70590000D02*
X128180336Y-70590000D01*
X127964664Y-71310000D02*
X128180336Y-71310000D01*
%TO.C,USB1*%
D12*
X82660000Y-67360000D02*
X83210000Y-67360000D01*
X82660000Y-68640000D02*
X83210000Y-68640000D01*
X84270000Y-67360000D02*
X84780000Y-67360000D01*
X84270000Y-68640000D02*
X84840000Y-68640000D01*
X82800000Y-68720000D02*
G75*
G02*
X82640000Y-68720000I-80000J0D01*
G01*
X82640000Y-68720000D02*
G75*
G02*
X82800000Y-68720000I80000J0D01*
G01*
D13*
X82920000Y-68400000D02*
G75*
G02*
X82860000Y-68400000I-30000J0D01*
G01*
X82860000Y-68400000D02*
G75*
G02*
X82920000Y-68400000I30000J0D01*
G01*
%TO.C,R8*%
D11*
X128018859Y-60670000D02*
X128326141Y-60670000D01*
X128018859Y-61430000D02*
X128326141Y-61430000D01*
%TO.C,R7*%
X122658859Y-56307500D02*
X122966141Y-56307500D01*
X122658859Y-57067500D02*
X122966141Y-57067500D01*
%TO.C,R5*%
X90836359Y-73620000D02*
X91143641Y-73620000D01*
X90836359Y-74380000D02*
X91143641Y-74380000D01*
%TO.C,C13*%
X110118859Y-75170000D02*
X110426141Y-75170000D01*
X110118859Y-75930000D02*
X110426141Y-75930000D01*
%TO.C,C19*%
X127964664Y-72560000D02*
X128180336Y-72560000D01*
X127964664Y-73280000D02*
X128180336Y-73280000D01*
%TO.C,U2*%
X87090000Y-55440000D02*
X88910000Y-55440000D01*
X87090000Y-55490000D02*
X87090000Y-55440000D01*
X87090000Y-58560000D02*
X87090000Y-58510000D01*
X88910000Y-55440000D02*
X88910000Y-55490000D01*
X88910000Y-58510000D02*
X88910000Y-58560000D01*
X88910000Y-58560000D02*
X87090000Y-58560000D01*
X86550000Y-55490000D02*
X86310000Y-55160000D01*
X86790000Y-55160000D01*
X86550000Y-55490000D01*
G36*
X86550000Y-55490000D02*
G01*
X86310000Y-55160000D01*
X86790000Y-55160000D01*
X86550000Y-55490000D01*
G37*
%TO.C,D1*%
D14*
X117222500Y-70050000D02*
G75*
G02*
X117122500Y-70050000I-50000J0D01*
G01*
X117122500Y-70050000D02*
G75*
G02*
X117222500Y-70050000I50000J0D01*
G01*
%TO.C,R1*%
D11*
X115608859Y-71670000D02*
X115916141Y-71670000D01*
X115608859Y-72430000D02*
X115916141Y-72430000D01*
%TO.C,C2*%
X113154664Y-75190000D02*
X113370336Y-75190000D01*
X113154664Y-75910000D02*
X113370336Y-75910000D01*
%TO.C,C3*%
X115654664Y-75190000D02*
X115870336Y-75190000D01*
X115654664Y-75910000D02*
X115870336Y-75910000D01*
%TO.C,C4*%
X100704664Y-67827500D02*
X100920336Y-67827500D01*
X100704664Y-68547500D02*
X100920336Y-68547500D01*
%TO.C,J1*%
X81640000Y-60100000D02*
X81640000Y-60740000D01*
X81640000Y-60740000D02*
X81010000Y-60740000D01*
X81640000Y-62900000D02*
X81640000Y-62260000D01*
X84360000Y-60150000D02*
X84360000Y-62850000D01*
%TO.C,R3*%
X125108859Y-60670000D02*
X125416141Y-60670000D01*
X125108859Y-61430000D02*
X125416141Y-61430000D01*
%TO.C,R2*%
X100658859Y-65307500D02*
X100966141Y-65307500D01*
X100658859Y-66067500D02*
X100966141Y-66067500D01*
%TO.C,X1*%
X99252500Y-61827500D02*
X99252500Y-63547500D01*
X99252500Y-63547500D02*
X101772500Y-63547500D01*
X101772500Y-61827500D02*
X99252500Y-61827500D01*
%TO.C,C1*%
X115154664Y-64190000D02*
X115370336Y-64190000D01*
X115154664Y-64910000D02*
X115370336Y-64910000D01*
%TO.C,R9*%
X128018859Y-62660000D02*
X128326141Y-62660000D01*
X128018859Y-63420000D02*
X128326141Y-63420000D01*
%TO.C,C15*%
X127964664Y-68620000D02*
X128180336Y-68620000D01*
X127964664Y-69340000D02*
X128180336Y-69340000D01*
%TO.C,C8*%
X125094664Y-70590000D02*
X125310336Y-70590000D01*
X125094664Y-71310000D02*
X125310336Y-71310000D01*
%TO.C,U4*%
X97975000Y-72837500D02*
X97975000Y-72837500D01*
X97975000Y-73337500D02*
X97975000Y-73037500D01*
X97975000Y-74537500D02*
X97975000Y-74537500D01*
X97975000Y-75037500D02*
X97975000Y-74537500D01*
X98475000Y-72837500D02*
X98175000Y-72837500D01*
X98475000Y-75037500D02*
X97975000Y-75037500D01*
X99675000Y-72837500D02*
X100175000Y-72837500D01*
X99675000Y-75037500D02*
X99675000Y-75037500D01*
X100175000Y-72837500D02*
X100175000Y-73337500D01*
X100175000Y-73337500D02*
X100175000Y-73337500D01*
X100175000Y-74537500D02*
X100175000Y-75037500D01*
X100175000Y-75037500D02*
X99675000Y-75037500D01*
X97975000Y-72837500D02*
X97615000Y-72837500D01*
X97975000Y-72477500D01*
X97975000Y-72837500D01*
G36*
X97975000Y-72837500D02*
G01*
X97615000Y-72837500D01*
X97975000Y-72477500D01*
X97975000Y-72837500D01*
G37*
%TO.C,U5*%
X95500000Y-54690000D02*
X96880000Y-54690000D01*
X96880000Y-53310000D02*
X96880000Y-54690000D01*
X94000000Y-43500000D02*
X132000000Y-43500000D01*
X132000000Y-55500000D01*
X94000000Y-55500000D01*
X94000000Y-43500000D01*
%TO.C,U1*%
X104952500Y-63640000D02*
X105427500Y-63640000D01*
X104952500Y-64115000D02*
X104952500Y-63640000D01*
X104952500Y-70860000D02*
X104952500Y-70385000D01*
X105427500Y-70860000D02*
X104952500Y-70860000D01*
X111697500Y-63640000D02*
X112172500Y-63640000D01*
X112172500Y-63640000D02*
X112172500Y-64115000D01*
X112172500Y-70385000D02*
X112172500Y-70860000D01*
X112172500Y-70860000D02*
X111697500Y-70860000D01*
X104422500Y-64500000D02*
X104092500Y-64740000D01*
X104092500Y-64260000D01*
X104422500Y-64500000D01*
G36*
X104422500Y-64500000D02*
G01*
X104092500Y-64740000D01*
X104092500Y-64260000D01*
X104422500Y-64500000D01*
G37*
%TO.C,J2*%
D15*
X113193000Y-59927999D02*
X113193000Y-58717001D01*
X114493000Y-57417000D02*
X118014892Y-57417000D01*
X118014892Y-61228000D02*
X114493000Y-61228000D01*
X118789232Y-57632322D02*
X119839377Y-58265297D01*
X119839377Y-60379703D02*
X118789232Y-61012678D01*
X120432000Y-59314451D02*
X120432000Y-59330549D01*
X113193000Y-58717002D02*
G75*
G02*
X114493000Y-57417000I1300000J2D01*
G01*
X114492999Y-61228000D02*
G75*
G02*
X113193000Y-59927999I1J1300000D01*
G01*
X118014892Y-57417000D02*
G75*
G02*
X118789232Y-57632322I-2J-1500008D01*
G01*
X118789232Y-61012678D02*
G75*
G02*
X118014892Y-61228000I-774342J1284686D01*
G01*
X119839377Y-58265297D02*
G75*
G02*
X120432000Y-59314451I-632377J-1049154D01*
G01*
X120432000Y-59330549D02*
G75*
G02*
X119839377Y-60379703I-1224996J-2D01*
G01*
%TO.C,C12*%
D11*
X127964664Y-66650000D02*
X128180336Y-66650000D01*
X127964664Y-67370000D02*
X128180336Y-67370000D01*
%TO.C,R4*%
X125108859Y-62660000D02*
X125416141Y-62660000D01*
X125108859Y-63420000D02*
X125416141Y-63420000D01*
%TO.C,C6*%
X125094664Y-68620000D02*
X125310336Y-68620000D01*
X125094664Y-69340000D02*
X125310336Y-69340000D01*
%TO.C,U3*%
X118852500Y-62490000D02*
X120672500Y-62490000D01*
X118852500Y-62540000D02*
X118852500Y-62490000D01*
X118852500Y-65610000D02*
X118852500Y-65560000D01*
X120672500Y-62490000D02*
X120672500Y-62540000D01*
X120672500Y-63660000D02*
X120672500Y-64440000D01*
X120672500Y-65560000D02*
X120672500Y-65610000D01*
X120672500Y-65610000D02*
X118852500Y-65610000D01*
X118312500Y-62540000D02*
X118072500Y-62210000D01*
X118552500Y-62210000D01*
X118312500Y-62540000D01*
G36*
X118312500Y-62540000D02*
G01*
X118072500Y-62210000D01*
X118552500Y-62210000D01*
X118312500Y-62540000D01*
G37*
%TO.C,C9*%
X125094664Y-72560000D02*
X125310336Y-72560000D01*
X125094664Y-73280000D02*
X125310336Y-73280000D01*
%TO.C,Y1*%
X116852500Y-72340000D02*
X116852500Y-74760000D01*
X116852500Y-74760000D02*
X119672500Y-74760000D01*
%TO.C,R6*%
X93856359Y-73620000D02*
X94163641Y-73620000D01*
X93856359Y-74380000D02*
X94163641Y-74380000D01*
%TO.C,J3*%
X82330000Y-49900000D02*
X82330000Y-48200000D01*
X91670000Y-49900000D02*
X91670000Y-48200000D01*
%TO.C,C14*%
X107108859Y-75170000D02*
X107416141Y-75170000D01*
X107108859Y-75930000D02*
X107416141Y-75930000D01*
%TO.C,J4*%
X86015000Y-65140000D02*
X86015000Y-70860000D01*
X86015000Y-70860000D02*
X89500000Y-70860000D01*
X87085000Y-65140000D02*
X86015000Y-65140000D01*
X87085000Y-65440000D02*
X87085000Y-65140000D01*
X87375000Y-64850000D02*
X86875000Y-64850000D01*
X87375000Y-65150000D02*
X87375000Y-64850000D01*
X89500000Y-65440000D02*
X87085000Y-65440000D01*
X89500000Y-65440000D02*
X91915000Y-65440000D01*
X91915000Y-65140000D02*
X92985000Y-65140000D01*
X91915000Y-65440000D02*
X91915000Y-65140000D01*
X92985000Y-65140000D02*
X92985000Y-70860000D01*
X92985000Y-70860000D02*
X89500000Y-70860000D01*
%TD*%
M02*
